<mxfile host="Electron" agent="Mozilla/5.0 (Windows NT 10.0; Win64; x64) AppleWebKit/537.36 (KHTML, like Gecko) draw.io/24.7.8 Chrome/128.0.6613.36 Electron/32.0.1 Safari/537.36" version="24.7.8">
  <diagram name="Page-1" id="CoXenyC9bNlcW1ui5tpg">
    <mxGraphModel dx="639" dy="409" grid="1" gridSize="10" guides="1" tooltips="1" connect="1" arrows="1" fold="1" page="1" pageScale="1" pageWidth="850" pageHeight="1100" math="0" shadow="0">
      <root>
        <mxCell id="0" />
        <mxCell id="1" parent="0" />
        <mxCell id="nDPiHoEHboeqokuqfJ7l-1" value="" style="verticalLabelPosition=bottom;html=1;verticalAlign=top;align=center;strokeColor=none;fillColor=#00BEF2;shape=mxgraph.azure.user;" parent="1" vertex="1">
          <mxGeometry x="70" y="182" width="47.5" height="50" as="geometry" />
        </mxCell>
        <mxCell id="nDPiHoEHboeqokuqfJ7l-14" style="edgeStyle=orthogonalEdgeStyle;rounded=0;orthogonalLoop=1;jettySize=auto;html=1;exitX=0.75;exitY=1;exitDx=0;exitDy=0;exitPerimeter=0;entryX=0.5;entryY=0;entryDx=0;entryDy=0;" parent="1" source="nDPiHoEHboeqokuqfJ7l-2" target="nDPiHoEHboeqokuqfJ7l-6" edge="1">
          <mxGeometry relative="1" as="geometry" />
        </mxCell>
        <mxCell id="nDPiHoEHboeqokuqfJ7l-25" value="prompt" style="edgeLabel;html=1;align=center;verticalAlign=middle;resizable=0;points=[];" parent="nDPiHoEHboeqokuqfJ7l-14" vertex="1" connectable="0">
          <mxGeometry x="-0.1456" y="-1" relative="1" as="geometry">
            <mxPoint as="offset" />
          </mxGeometry>
        </mxCell>
        <mxCell id="nDPiHoEHboeqokuqfJ7l-2" value="" style="sketch=0;points=[[0,0,0],[0.25,0,0],[0.5,0,0],[0.75,0,0],[1,0,0],[0,1,0],[0.25,1,0],[0.5,1,0],[0.75,1,0],[1,1,0],[0,0.25,0],[0,0.5,0],[0,0.75,0],[1,0.25,0],[1,0.5,0],[1,0.75,0]];points=[[0,0,0],[0.25,0,0],[0.5,0,0],[0.75,0,0],[1,0,0],[0,1,0],[0.25,1,0],[0.5,1,0],[0.75,1,0],[1,1,0],[0,0.25,0],[0,0.5,0],[0,0.75,0],[1,0.25,0],[1,0.5,0],[1,0.75,0]];outlineConnect=0;fontColor=#232F3E;fillColor=#E7157B;strokeColor=#ffffff;dashed=0;verticalLabelPosition=bottom;verticalAlign=top;align=center;html=1;fontSize=12;fontStyle=0;aspect=fixed;shape=mxgraph.aws4.resourceIcon;resIcon=mxgraph.aws4.chatbot;" parent="1" vertex="1">
          <mxGeometry x="320" y="176" width="78" height="78" as="geometry" />
        </mxCell>
        <mxCell id="nDPiHoEHboeqokuqfJ7l-3" value="&lt;div&gt;&lt;br&gt;&lt;/div&gt;SQL&lt;div&gt;Server&lt;/div&gt;" style="strokeWidth=2;html=1;shape=mxgraph.flowchart.database;whiteSpace=wrap;" parent="1" vertex="1">
          <mxGeometry x="530" y="90" width="60" height="60" as="geometry" />
        </mxCell>
        <mxCell id="nDPiHoEHboeqokuqfJ7l-5" value="Azure AI Search" style="shape=image;verticalLabelPosition=bottom;labelBackgroundColor=default;verticalAlign=top;aspect=fixed;imageAspect=0;image=data:image/png,iVBORw0KGgoAAAANSUhEUgAAAlgAAAE7CAYAAAAB7v+1AAAAAXNSR0IArs4c6QAAAARnQU1BAACxjwv8YQUAAAAJcEhZcwAADsMAAA7DAcdvqGQAACCxSURBVHhe7d15dFzlffDx/EXP6R9uaojZgpKG4JBNNIU4hRDRBnDCYpmQIMCxxXl73rg9fVs3bVMnIViyJMsLtiwvkmUZSzIQEzYBXiRvCLNYJrwgVsuLtpEljaSRNDOWxdjtX7fPM3pEhPwzHmm2u3w/53xP2qbg8dyZ5/7m3jt3PgcAAAAAAAAAAAAAAAAAAAAAAAAAAAAAAAAAAAAAAAAAAAAAAAAAAAAAAAAAAAAAAAAAAAAAAAAAAAAAAAAAAAAAAAAAAAAAAAAAAAAAAAAAAAAAAAAAAAAAAAAAAAAAAAAAAAAAAAAAAAAAAAAAAAAAAAAAAAAAAAAAAAAAAAAAAAAAAAAAAAAAAAAAAAAAAAAAAAAAAAAAAAAAAAAAAAAAAAAAAABPeKhmcOZDNeGs+TXBnAU14bzcbeHi3G2hBt2CbeGI+t+tyaT+Gf/YPz9auFj/e/Wf8VDN0CzzxwIAALiDHnIW1AQXqsGnxAw/4pCU7BZsCwXNAFY1vyacq4c88xABAADsK7fad9H8muBsPUwt2BZulgYdOzV65Cu8fUFNeJEaBDPNXwMAACC99Cm4BTWhxek8OpWoRk9Phmr1ES41dE0zf0UAAIDk06fX1EBSvGBbqH3ikOKytuvrxPSROfNXBwAASJyHagIz9Kk0J5z6S3SjR7YYtgAAQIKMXlMVrhs/cHg5fd3W6DcUAzPMUwQAAHBhoxerh3O9eLQq1sz1WlUP1YQzzNMGAABwLn1htz46o4/SSEMFna9Qrb4dhXkaAQAARo9YjQ5W+l5R0gBBsaSevyYGLQAAPM4MVvrCdY5YJbToES1OHQIA4DWj11i5/jYLaWv0Gq3oT/ZwPy0AANxO38NK7fwbJw4ElJz00UH9U0Hm6QcAAG6j77hujqyIwwAlr9Hrs/jhaQAAXGNeTThTH7VS6SMqlKbmq+FWD7lmswAAAKdSO/ViaWdP6SzUwI1KAQBwoOhP23DUyrbN3xYK6rvkm80FAADsTu+49Q5c2rGTvZq/LVzO7xsCAGBznBJ0YtEblHLfLAAA7Cb6MzecEnRsajD26y8jmM0JAADSTd/bav62ULu04ybnxHVZAADYxM9rhmZxvZXL4sakAACkz/yaYE703krSTpocnRqaS8xmBgAAqWJ+pFncOZNbClWZzQ0AAJLt5zXhvPlqB0zujyELAIAUUMPVImlHTO6NIQsAgCSaXxPOVVnkwaq5JgsAgISbp4arn6sdLXm6PPNyAAAA8XqwJpjz85qQ2sESBRmyAACIl77P1bzqUETe2ZIXm8d9sgAAmLr7a8IZarjyz4vuVIlGezA6cA/NMi8TAAAQq9xq30UPVgebpB0s0bzqYPt9NYEZ5uUCAABi8UB1qPbB6ujRCqLz1WBeLgAA4EIeqA4WCztTIilu3wAAwIXcXxPOEnaiROdv62C2efkAAICJ9DU1D1SF/A+onSZRrN1fFYo8WDM407yMAADAeGpnWTtx50kUU1WhRvMyAgAAYx7YOrjwgeqg2lkSTbGqoUXm5QQAAPTpnZyqYOR+tZMkmmr6NcStGwAAMO6vCjapLKL4G6ozLysAALwrp2poUY7aMRIlrK0DOeblBQCA9+jTOTlbg35xJ0k01dRrilOFAADPyqkKlYs7SKL4qzIvMwAAvOO+LYHM+9SOkChpqdeYebkBAOANP6sKNoo7RaIEpV5jteblBgCA++VsHcy+b6vaCRIlO45iAQC84qdbh5p+tnXIotjbuCdk7Xsn/ElvHTtlHe8cra172Dp9+rTVGxj+5P/W3HHqU///FfuC1j89Kf+7Xd1jQxzFAgC4371bB7PFHSF90q+fGbIePxi0Xv8w/MnwlKhO9p6KDmfPHQpZxS8FxT/fbenXnHn5AQDgTvduHWr6qdrp0adbsysYHXz8gcQOVBcqFB623m8NRwe6h7YFxcfm9PRrzrz8AABwH30kQdoBerV/fHIoeiRJH1WShp9UNxQ6bR1uPhUd9qTH6+Q4igUAcC2OXo02drRKHz2SBh07pIe+l94MWb/8gzuGLfXaazAvQwAA3OPeysHsex9TOzoPt+zFoNWa4Guqkp0eAvVF8rk1QfHv5KgqB2ealyMAAO5w75ahOnGn54F++VQweupNGmCcUv/gsPX4K04fsoIl5uUIAIDzza0IZ8g7PHenj/rsfisUvbZJGlqcmM8/bG2oD4l/X7v3ky1D/txq30XmZQkAgLOpHVvxT/QOzkNVvRxK+TcCU5n+5uEvnpD/7rauciDHvCwBAHAufcTgni1DfnFn58L0USunnw6MNX3acPWuoPg82LYtXOwOAHCBuZX92fc8Nmh5oX97ashq7fbGcDWWvgj+2UNB8fmwa1zsDgBwtLkVfRn3bBlouGeL2rG5vPX1QVddazXZmk6cshbUDInPjd3Sp6zNSxQAAPvSpwHnPjaYNXfzwKKfVA6VR4eqysGItHNzYy8eDolDh9fSF8DnPe+IIavdvHQBALCPm/VAVdmfPVcNU3O3DDTPVTstr6aP3EjDhlfTR/GKXhgSnytbVdGXYV7OAACkz5wt/bOyKwOL51YONoo7LA/21tGwOGR4PT1kLXne5kPW5oFF5qUNAEBqzd0SyBw9SjXoP2cH5fHSMVwd6ThlvfDmKavi5WHr0b0j0Zbsjli/2XnmU/3rs6ej/92aPcPWM42noo/1eGdqj7TpW1T819O2HrLqzMscAIDku6MsMGOO+nSfvWWgOVvtiOjc9r6Tmmuu9O8B7n/3lFWyd9j67c6IVbTvf6bcb3edsRY9N2xtezV1w5Yesn6lhizpOUx7lYMRfarbvOwBAEiOuyv7s9VOp06ldz50nva+ndzhSt/24JUPhq2lO0esh9VQJA1L8fbI7rPWkh0j1rOHwtEhTnociSo6ZP1BDVnCc5nu5mwOzDYvfwAAEmtORSB3zuaB5jl6h0Of2a4/BsUhIhH1D5yynjs8bOXtTs5Qdb7y6s5aK3YPR08/So8rEekha171kPicprO7Kwf5bUIAQOLoUyN6sLq7cqB9TuWA2tnQhVq1Y0gcHuJNXxD+5Gvh6Ck8aQBKVQ/viliVL4ejg570OONNXwcmPa/pTL/+zVsCAID4zNncv0jtXPwTdzZ0/uZVDybldwXfax22HtnxsTjwpKuHd35svfx+coasbQ36KJb8HKer7JrwNPPWAABg8u6qGMy6qyLQfPdm9cmdJlXjkcR+Y1BfZ1X12ohVuOe/xSHHDi2vG7F8PYkdKvXRuv98alB8jtOVfl+YtwgAALHT3wq8e/PgdmnnQheubE9iTw22dp22CnbH943AVPXrHRHrUIJ/uPpY5ynxeU5Xd23u535YAIDJuXtTYPFdmwNBacdCF+5ffj+Y0GuS9ClBfd8qaZixa/obh3ubEjtk6S8LSM93OrqrYqDcvF0AAPhsd1cOzryzItB8l96B0JR7ryVxpwYPHTltFdSfFYcYu7dUPe6nDiVuyNKnSAtqB8XnPA01mrcNAADnp095qE/lEWFHQpPosQOJuyXDzrdP2/p6q1iraJD/flNJD6/S857q7twcCJq3DgAA59LXWt1RMVB3Z4XaaVDcdSToAu/6ptPisOLUNu4fjh6Bkv6uk63g+UHxuU91+oiveRsBAPAnd5YFZqvhyi/tPGjyPbY/MUev3mkZjp5ekwYVp6aPxD31emJOneqjWNLzn+ruKO/PNm8lAABG3VkRKFGpHQUlqo6e+K836u5333A1lr77+7sJuj6t4Hk95MjbIWVt6lts3k4AAK/Td2P/cUWg9g61g6DEtWV/Ym7LsHyvs74tONmW7D5j+QPxD6L6KJa0HVLbQLF5WwEAvCy7NDxN7Rgaz91RULwl4uhV1Wv2ujt7slq552Px7z/Zlj4/IG6LlLVpoMq8tQAAXjV7g3/mHeWB9js26R0DJbKNdYPiADCZDjefEocRt/b8m/Ff8B49iiVsj1T14039debtBQDwIrUjmKUK/ji6U6BE98fm+K8rKqx396nBif1uVyQhR/3++YkBcZukqAbzFgMAeM3sssDsH5cHIsLOgRJQzmMD1lAovqMxB9531y0ZYm3dvviPYj392pC4XVJSeaDdvM0AAF6ih6sfqeHqR2pnQMkp3tOD4WF9M1F3fmvwQuXX/7fV1h3fUawj7WFxu6Smfm42CgBe86OKviyGq+TXeCS+04M73xkRhw+vVLpPfl5iTd+8NLda3japyLzdAABecHtZIHN2eX9wdnnAouTWF8ePOo8evXL+T+HEk/77t3TFdxTr9weHxG2Tim7b1D/LvO0AAG7GcJW61u6K795X+z/wxm0ZLtSWgyPi8xNrH7WHxe2TuqLvt4bbywN56n/O/lFFX4Z5OwIA3EAv7KOLfb9e9CnJNX4U3+nBdQ1nxIHDaz2860xcRwL1acL7tkQHHdt0e3mfX/1n1e0b+3KySsPTzFsUAOA0ehG/rby/+fbo4k6pKJ7bDATDI54/PTi+/e/GN6wuf3FA3Ea2qayv8bayvsUc3QIAh7mtLFArLuyUlH62JRA9ciLt7GOp8ai3L26f2Lq98V2H9fRrg+J2smkNauDK1T9bZd6+AAA7urW8v/g2tXBT6sp7LiDu6GOt4hWuvxrfb3fG9/M5B98PidvJ5gVvLQuU619ZMG9lAIBd/HBjX85tZWqxppRWdWDq97/S3x4s8ui9r86XPl0azz2x9IXu0nZyToFa/QUV87YGAKSTXpBv3dgfuVUt0JTa9BETaUcfSye6OT0o9eJbUz/lqi+Sl7aT82LQAoC00tdvqAW5+dwFmlLRH5unPmA1fMjpQamV9fLzFWvzt8rbypkxaAFAWujrruSFmVLRMd/UT2c9/SYDltSvXozvOqzlLwyI28rRqfc5t3kAgBS5ZX3/rB+qxZfS18neqQ9YXOAu96uXPo7rm5lPvjIobivHt7HPf2tZ72zz9gcAJIM+NfjDsr5mlVp8KV3Fc2PM1fu5wajUb3dGLH8g3gFL3l5u6O839tVllQVmmKUAAJBIP9zYX6wWWr3YUhqTdvCxtnwf3yCUyq8/G/eAJW0rlxW8ZT1HswAgoW4p68kUFlxKQ9IOPtaK9nIH9/PV3DH1I4N/eNUTA9ZoZX0l3KgUABLk7zb0Nf2dWlwp/Uk7+FjSP5EjDRY02nstUx+w6t8aEreVe+ttvIWblAJAfNRCmi0vspSOpB18LA0ET4uDBY12uHnqv0novQErGqcMAWCq9KkA9Wm1XVhcKU1JO/hY4xTh+Ws8woA1lW7Z0JdrlgsAQKxuWe9fdIteRMk2STv4WCvey0XuUkvrz1otXfGdIpS2lVfK2thfbJYMAMCF6K9lZ+nTAMKCSukrnm+7rTnAbRqkfrf7TFy3v9AXuUvbyktlbeyt4uJ3AIhB1obeEpVF9uqYb+qnsipf5UajUr/ZEd+d3Cv2DIjbynv56xiyAOAz6KNXP1jfG5EXUUpnbx+b+m8R8lM5ckt3j4jPV6w98ky/uK082freWrOMAAAm+sE6/2Jx8aS0d/C9oLiTj6X9HzBgSa3bJz9fsfbglj5xW3m29b1VZikBAIzRh/hvXu/3/0AtlGS/nn9jUNzJx1JLD/fCknr8talffzUUHBa3k9e7mSELAD7t5nU9OdKCSfZoWW2/uKOPpfAwt2qQevPo1K9r6/SHxe1Easja2Mu3CwFgjFoYmyYulGSfsiviu1VD+SsRccjwar/ZEYkehZKeq1j6qI0B67O6eYM/2ywtAOBd31/fPevm9X6L7F1Hz9RPaR38kDu6j+/RuqkfvdK91DggbiMa7fvr/JGbSnsyzRIDAN70/fX+7dIiSfYqnm8S8pM5n+7VD6b+XOp+93SfuI1ofD3tWaW+aWaZAQBv0Re336Q+baohyyJ793jDgLizj7XSlzlNqHtk95m4Tg/qf1baPnRuN633N5ilBgC85cZ1PTnSwkj26/893ivu8GON2zWM9mj91IcrnT6SKG0fOk/ruheb5QYAvOP763tqxUWRbFk812Hp04TLPP5twoI9Z60/Ho3v9KA+kihtG5LTR8hv3OCfaZYcAHA/fX3EjfpiVL0IkiM60DT1G47qDh7x9lGspTvjO3ql++fHe8VtQ+dPrTONZtkBAPe7qbQn96Z1PeoTJjml1S9N/X5YOn1PrJX7vXkUa2n9WetYZ3zfHvQHTonbhS7cjZwqBOAVatGrm7gIkv3TN7mUdv6x9sZRbx7FWrtn6qdXx9K3Z5C2CV24G9f1cKoQgPvpbw/+rV7wRhc+clDPvRHftwl1JQfOiEOIW8urP2u1dcc3YIXCw9Y/VPWK24RiS605/Cg0AHf7Xml3lrQAkv3TO3m9s5eGgFg70umt3yfctD++C9t1b3wYFLcHTbLSLu7yDsC91ICVpz5N6k+U5MDePhbfxe66Jw5541Th0t0jcQ+kuof/0CtuC5ps3U1mGQIA91ELXcO5Cx85Jb2zl4aAyaQveF/f4O5ThUt2n7E6++Ifrj5qC4nbgabcQrMUAYC7fK+0J/K3pWqhI8f27vH4j2L1D41YxfvOisOJ09PfGjx8JP5Tg7pN9QFxG9CU89+8xHeRWY4AwB2uL+3JVAOWRc4uEUexdG09p62ive4bsn7/WmKGq46esPj8U3zNKu1eZJYkAHCHWaUnF32vtFstcuT0EnEUS3foqLsuei/bH9+tLMZXurNPfO4p7vxmSQIAd1CfHLcLix05sO2vxHfj0fHVv+eOi97X7Zf/flNJf5lAet4pMc3iG4UA3GTW2q4mNWTpQ/Tk4Nbu7EvIt+PG9167GrIcerpQ/85g9cHEHbnqGzhl/Z+tfvG5pwSl1iKzLAGA8323tDsiLnbkmJIxXI2lr8la7rAL3/UF7c8eSszp0rEef7lffO4pwZV0zzJLEwA41/dKfRnfXdttkXNbuyN5w9VYA8HT1rqXnXELh9/t/Ng6+EFih6ujHSHxuaektN0sTwDgXN8t6ZotLHDkkFIxXI2l75P1zFv2HrJK9n9sdfUn9vnQz+9/POkXn39KfDes7Y5wywYAjndDyclF0iJH9i+Vw9X4TnSP2O6GpI/silivH4n/x5ulnns9ID7/lLxuKOnKMUsUADjTDSXd5eoTo/7USA4qXcPV+N5tG0n7tVn59WetqldC1mAwOc/FK+8Oic8/JT1+BBqAs12/trtOWNzIxtlhuBrf/vdHrGUp/qZhgRqsth86bQWGkvc8fNgWEp9/Sn5qXYpklvqmmWUKAJznhrVdjSq1qJETWruj11bD1Vj6+ix9RKvmjUjShi39zcDCXaetnW8PW8HwiPg4ElVHd9j6aYXe2cvbgZLfd9eczDXLFAA4z/UlXe3Xq8WM7J9dhyupo53D1pOHRqzivfFdq6WPVG04cNra9+6ppJ0GnJi+39U/1fSI24BS19+sPclpQgDOdf0aNWCVqAWNbJ2ThquJ+QdGrHdbh61nDo9Ymw9+bK3YG7GW1X98Tmv2R6xNDSNW9aunrVc/GraOdcr/vmSmn+OCZ/3iNqAUt6YraJYpAHCe75R0Rf5GLWZk31a94NzhyknpI2R6uJK2AaWnzEd9mWapAgBnkRY1sk+/2d6TslNjXq7TH7b+sbpH3AaUzk4uMksVADjHD/J8fyYvamSHGK5Sk75L+72busVtQOntOyVchwXAga4r9X3pO9FFjOwWw1VqOvzRkDV7Q7e4DcgGcR0WACe64VHfpeKiRmmN4So1vXgoID7/ZK/UOjXDLFkA4BzqE6L+lEg2ieEq+enrrZY+4xeff7Jf163uzjLLFQA4x1+vOelXWZT+GK6Sm/4m5v63B63bN3SJzz/Zs++s9i00yxUAOMdfrz7ZLC1qlNoYrpJby8mQ9e9P9IjPPdm9rhKzXAGAc2SuOdlwnVrEKH392obDVXt32Krc0xv9T+m/d0r6eX3hjX7xeSfHVGeWKwBwDrV4bZ+wmFEKs+twdU951yePsWx3n+MGLf1zN3qwGv/3IIe2+mSzWa4AwDmuW9NVLi5qlPScMFyNzwmDlr6AveZAn/j4ybmZ5QoAnOPbq0/mZa4+aVFq++XjNh2uyrrExzs+PWjp+0fZ6fHrm4WWvOgXHy85P7NcAYBzZK7yLZQWNEpeC7d2W/7+U+KgkK5iHa4mlq5hS/95///okFWzv89aUNktPjZyT9et8GWYJQsAnEH/mKq0oFFysuNwpR+PflzS451MK2t7rdc/GIoeTUrGj1PrIXDf24PRe1hJfz65NwYsAI5z2RLfRd9WCxglv1+oIabHZsOVfjz6cUmPN970kSU9dOmLzWMdvPTtFD5sDVq73wxYz77WH/3n9elU6d9P3umbq33cbBSA86gFrGnigkaJzWvDFVEiY8AC4EjfWt1ZpbIoOf1ia5dNh6su8fES2S0GLACO9M2VvkXfelQtZJTwbD1cCY+XyI4xYAFwpG+v9M2SFjWKL4YrosTERe4AHCmz1Dftm2oRo8Rl5+FKerxEdm4mAxYAp/rmqs4maWGjycdwRZTYzDIFAM7zjdWdJdLCRpOL4Yoo8ZllCgCcR19E+g21kNHU+782HK76BsLRxyU9XiKH1G6WKQBwHn3D0W+s6oyoLJp82RtO2u6HkPXPySx+slt8vERO6esrO5vMMgUAznTtys7ar+sFjSbVHBsPV9LjJXJY280SBQDO9LUVvtyvr/KpBY1ibc6GTpsOV13i4yVyWteu9C02SxQAOJP+KrS0wJEcwxVRSso2SxQAONe1KzuarlWLGn12dh6upMdL5NSuKfbNNMsTADjX11b58qRFjv4UwxVR6jJLEwA427WP+mZIixz9qQ9bg+KQk64Yrsi9dTSbpQkAnO9rKztqv7bSZ9G57TrcLw456UoPV//1RJf4WImc3syVHVVmWQIA57tmuW+2tNh5vXkVJ61Q2D43EmW4Irc3kwvcAbjNNSs72mfqBY4+qeGdAXHQSUd60NPDlfQ4idzSVaW+aWZJAgB3UIvboomLnZe7e32nbY5e6cex+oUe8XESuacO7uAOwH30xe4zV7ZH1CKnFzrPt7muRxx2Ut3ocNUtPkYiN3XNqo4SsxwBgLt8dUXH9mv0QkfW6+8PigNPKhsbrqTHR+S2Zq5q5forAO509TJf5jUr1GJH1tH29N6aITpc1arhSnhsRO6rPaJ/gN4sRQDgPl9d0VErL4DeqrMnJA4+qYjhirzWV5dzewYALnfVo74ZX1WfJtWgZXm5dA1YY8OV9JiI3NrVK3xZZgkCAPe6ekVHibQIeql0nCJkuCJPtrzdb5YeAHA3fRTr6hXtETVoqU+W3izVF7mPDVfSYyFyecVm6QEA91OLXsmERdBTVaTwNg0MV+TlMop9M82yAwDuFz2Ktbw9cvVytQh6sLvW+aKDjzQQJbqNO/ziYyBye19Z3s7NRQF4z1eWtS38SnQR9GZNx5J/mrB6r1/8s4m80NXF3PsKgEepT5iNKrUYeq9/qEzuUazR4Ur+s4k8EEevAHiXvj7iK8vbIsLi6Il2NfaJw1G8MVyR1+PoFQDP+1Jx++K/UguiV/uwZUgckqaaHq6kP4fIQ3H0CgD0T1joBXHCAumZ7lzXYTUn4L5Y+nQjwxVRu5XB0SsAGJWx7ETml4vbIl8ubre82M2rO6zX3xsQB6dYGgwOW0u2d4n/biKPxdErABjvS8XtecJi6amKn+2e1NEsfdTq5XcC1gNlPvHfR+S19Ic1s6QAAMZ8eVl7rbRoeq1fbTtp7X0rcN7fLNTXbT15wM9gRfTpys1SAgAY76p837SMZW3tX1KLJRFRrGUUt/nV+jHDLCUAgIn0rRvUYhmRFlEiIrFlbblmCQEAnM8VxW05asjSn0qJiD6zq4rbGs3SAQC4kIyi9pKMZWoBJSI6T1ctaw1mrPBlmGUDABALtYDWTVxQiYjGuqKQe14BwKTpm5BetaytQaU+qRIR/akvFrWXmKUCADBZ+puFVxW1NUkLLBF5tKK2Rv0BzCwTAICpYMgiorG+yHVXAJA4esj6YlFb8xejCywRebErl7VGrixqnW2WBQBAIuhPrWqRbZ+46BKRN7qisC3HLAcAgES6JN+XcWVhW9OVRerTLBF5pisKWhaaZQAAkAz6dOEVhS11Vxa1qoWXiDxQnnn7AwCS7fKi1qor1OJLRO5Nv8/NWx4AkCqXF7QslhZlInJF3OsKANLl8sITOZcXtUSExZmIHJr+8GTe4gCAdPnCspZZlxe1tqv0KQUicnCXFp7INW9tAEC66YvfLy9orbq8UC3SROS4LitsiVxWeJzfFwQAO9KfftVCHbwsumATkTNq8X8hv2WWeRsDAOzokvxjGWrRbjx3ESciu3VpQUudPgJt3r4AALu7tKA171K9gBORPeNidgBwpkvzj8/Un5AvLWxRCzoR2ST/jKLWLPM2BQA41SVFx2fPKGxpFhZ6IkphMwpaqv6MU4IA4C6X5B9fNKPgRFAt8nqhJ6LU1Twjn6NWAOBa+tPzJYWtJV8oOBERdgJElMD0++ySghN5ly3xXWTeggAAN/t8/pEZFxe2FqsdQPAL0R0BESWyiwtaav8y//hM85YDAHiJPqJ1cf7xRZcUtPilnQQRTS71Xtp+cf6JTPMWAwB43SX5J3LVzqFZpXcSRDS5qvR96MzbCQCAT5ue35p1ceGJ8osLWvzCToSITPo9Mr2wtYTBCgAwKdFha6katpaqYWup2qkQkTV9acv26fn8diAAIAH0sKV2LFWqZjVwWUReSr3u66bntyzkPlYAgKTR30LUn+CnLz1RMn3p8aaLl55QOyEi96Re283R17d6nXObBQBAWugd0F/kH589Pf9Enhq4tqsdU4P6z4i04yKyW+r16h99zZ4o/sv8Y7l/zjVVAAC7m55/LEsfBfi8Gr4+Hz3FGN2RCR0Pqv/UOzuiRDb+dVYXfR2q/iL/2EL92uToFAAAAAAAAAAAAAAAAAAAAAAAAAAAAAAAAAAAAAAAAAAAAAAAAAAAAAAAAAAAAAAAAAAAAAAAAAAAAAAAAAAAAAAAAAAAAAAAAAAAAAAAAAAAAAAAAAAAAAAAAAAAAAAAAAAAAAAAAAAAAAAAAAAAAAAAAAAAAAAAAAAAAAAAAAAAAAAAAAAAAAAAAAAAAAAAAAAAAAAAAAAAAAAAAAAAAAAAAAAAAAAAAAAAAAAAAAAAAAC42Oc+97/P3TZ2VAQR0AAAAABJRU5ErkJggg==;clipPath=inset(12.66% 23.67% 13.92% 24%);" parent="1" vertex="1">
          <mxGeometry x="524" y="185" width="80" height="59.11" as="geometry" />
        </mxCell>
        <mxCell id="nDPiHoEHboeqokuqfJ7l-6" value="OpenAI" style="shape=image;verticalLabelPosition=bottom;labelBackgroundColor=default;verticalAlign=top;aspect=fixed;imageAspect=0;image=https://freepnglogo.com/images/all_img/1702059841openai-icon-png.png;" parent="1" vertex="1">
          <mxGeometry x="534" y="300" width="55" height="55.84" as="geometry" />
        </mxCell>
        <mxCell id="nDPiHoEHboeqokuqfJ7l-8" style="edgeStyle=orthogonalEdgeStyle;rounded=0;orthogonalLoop=1;jettySize=auto;html=1;entryX=0.5;entryY=0;entryDx=0;entryDy=0;entryPerimeter=0;" parent="1" source="nDPiHoEHboeqokuqfJ7l-3" target="nDPiHoEHboeqokuqfJ7l-2" edge="1">
          <mxGeometry relative="1" as="geometry" />
        </mxCell>
        <mxCell id="nDPiHoEHboeqokuqfJ7l-9" value="credentials,&amp;nbsp;&lt;br&gt;conversation history" style="edgeLabel;html=1;align=center;verticalAlign=middle;resizable=0;points=[];" parent="nDPiHoEHboeqokuqfJ7l-8" vertex="1" connectable="0">
          <mxGeometry x="-0.0778" relative="1" as="geometry">
            <mxPoint as="offset" />
          </mxGeometry>
        </mxCell>
        <mxCell id="nDPiHoEHboeqokuqfJ7l-10" style="edgeStyle=orthogonalEdgeStyle;rounded=0;orthogonalLoop=1;jettySize=auto;html=1;entryX=1;entryY=0.5;entryDx=0;entryDy=0;entryPerimeter=0;" parent="1" source="nDPiHoEHboeqokuqfJ7l-5" target="nDPiHoEHboeqokuqfJ7l-2" edge="1">
          <mxGeometry relative="1" as="geometry" />
        </mxCell>
        <mxCell id="nDPiHoEHboeqokuqfJ7l-24" value="context" style="edgeLabel;html=1;align=center;verticalAlign=middle;resizable=0;points=[];" parent="nDPiHoEHboeqokuqfJ7l-10" vertex="1" connectable="0">
          <mxGeometry x="-0.0717" y="2" relative="1" as="geometry">
            <mxPoint as="offset" />
          </mxGeometry>
        </mxCell>
        <mxCell id="nDPiHoEHboeqokuqfJ7l-13" style="edgeStyle=orthogonalEdgeStyle;rounded=0;orthogonalLoop=1;jettySize=auto;html=1;exitX=0;exitY=0.5;exitDx=0;exitDy=0;entryX=0.5;entryY=1;entryDx=0;entryDy=0;entryPerimeter=0;" parent="1" source="nDPiHoEHboeqokuqfJ7l-6" target="nDPiHoEHboeqokuqfJ7l-2" edge="1">
          <mxGeometry relative="1" as="geometry" />
        </mxCell>
        <mxCell id="nDPiHoEHboeqokuqfJ7l-26" value="LLM answer" style="edgeLabel;html=1;align=center;verticalAlign=middle;resizable=0;points=[];" parent="nDPiHoEHboeqokuqfJ7l-13" vertex="1" connectable="0">
          <mxGeometry x="-0.2393" y="-1" relative="1" as="geometry">
            <mxPoint as="offset" />
          </mxGeometry>
        </mxCell>
        <mxCell id="nDPiHoEHboeqokuqfJ7l-15" style="edgeStyle=orthogonalEdgeStyle;rounded=0;orthogonalLoop=1;jettySize=auto;html=1;exitX=0.75;exitY=0;exitDx=0;exitDy=0;exitPerimeter=0;entryX=0;entryY=0.85;entryDx=0;entryDy=0;entryPerimeter=0;" parent="1" source="nDPiHoEHboeqokuqfJ7l-2" target="nDPiHoEHboeqokuqfJ7l-3" edge="1">
          <mxGeometry relative="1" as="geometry" />
        </mxCell>
        <mxCell id="nDPiHoEHboeqokuqfJ7l-23" value="logs" style="edgeLabel;html=1;align=center;verticalAlign=middle;resizable=0;points=[];" parent="nDPiHoEHboeqokuqfJ7l-15" vertex="1" connectable="0">
          <mxGeometry x="0.0384" relative="1" as="geometry">
            <mxPoint as="offset" />
          </mxGeometry>
        </mxCell>
        <mxCell id="nDPiHoEHboeqokuqfJ7l-17" style="edgeStyle=orthogonalEdgeStyle;rounded=0;orthogonalLoop=1;jettySize=auto;html=1;exitX=0.84;exitY=0.28;exitDx=0;exitDy=0;exitPerimeter=0;entryX=0;entryY=0.25;entryDx=0;entryDy=0;entryPerimeter=0;" parent="1" source="nDPiHoEHboeqokuqfJ7l-1" target="nDPiHoEHboeqokuqfJ7l-2" edge="1">
          <mxGeometry relative="1" as="geometry" />
        </mxCell>
        <mxCell id="nDPiHoEHboeqokuqfJ7l-20" value="question" style="edgeLabel;html=1;align=center;verticalAlign=middle;resizable=0;points=[];" parent="nDPiHoEHboeqokuqfJ7l-17" vertex="1" connectable="0">
          <mxGeometry x="0.0108" y="3" relative="1" as="geometry">
            <mxPoint as="offset" />
          </mxGeometry>
        </mxCell>
        <mxCell id="nDPiHoEHboeqokuqfJ7l-19" style="edgeStyle=orthogonalEdgeStyle;rounded=0;orthogonalLoop=1;jettySize=auto;html=1;exitX=0;exitY=0.5;exitDx=0;exitDy=0;exitPerimeter=0;entryX=0.87;entryY=0.65;entryDx=0;entryDy=0;entryPerimeter=0;" parent="1" source="nDPiHoEHboeqokuqfJ7l-2" target="nDPiHoEHboeqokuqfJ7l-1" edge="1">
          <mxGeometry relative="1" as="geometry" />
        </mxCell>
        <mxCell id="nDPiHoEHboeqokuqfJ7l-22" value="answer" style="edgeLabel;html=1;align=center;verticalAlign=middle;resizable=0;points=[];" parent="nDPiHoEHboeqokuqfJ7l-19" vertex="1" connectable="0">
          <mxGeometry x="0.0055" y="3" relative="1" as="geometry">
            <mxPoint as="offset" />
          </mxGeometry>
        </mxCell>
        <mxCell id="yCn2jR1rTROU2GFjiqKD-2" value="" style="shape=image;aspect=fixed;image=data:image/png,iVBORw0KGgoAAAANSUhEUgAABAAAAAQACAYAAAB/HSuDAAAACXBIWXMAAAsTAAALEwEAmpwYAAAgAElEQVR4nOzdedg9dV3/8Re7iOCOiuCCmPu+r2mKJu4L+SuVLBUtc7ewtFzSMisVcc3EX4hLliuuIa6IiuaCG5qoSbgAguzIdv+uqaHfF/wu577vc87nPTOPx3U9/+i6jO/cn/OZc2bOmflMAgAAAAAAAAAAAAAAAAAAAAAAAAAAAAAAAAAAAAAAAAAAAAAAAAAAAAAAAAAAAAAAAAAAAAAAAAAAAAAAAAAAAAAAAAAAAAAAAAAAAAAAAAAAAAAAAAAAAAAAAAAAAAAAAAAAAAAAAAAAAAAAAAAAAAAAAAAAAAAAAAAAAAAAAAAAAAAAAAAAAAAAAAAAAAAAAAAAAAAAAAAAAAAAAAAAAAAAAAAAAAAAAAAAAAAAAAAAAAAAAAAAAAAAAAAAAAAAAAAAAAAAAAAAAAAAAAAAAAAAAAAAAAAAAAAAAAAAAAAAAAAAAAAAAAAAAAAAAAAAAAAAAAAAAAAAAAAAAAAAAAAAAAAAAAAAAAAAAAAAAAAAAAAAAAAAAAAAAAAAAAAAAAAAAAAAAAAAAAAAAAAAAAAAAAAAAAAAAAAAAAAAAAAAAAAAAAAAAAAAAAAAAAAAAAAAAAAAAAAAAAAAAAAAAAAAAAAAAAAAAAAAAAAAAAAAAAAAAAAAAAAAAAAAAAAAAAAAAAAAAAAAAAAAAAAAAAAAAAAAAAAAAAAAAAAAAAAAAAAAAAAAAAAAAAAAAAAAAAAAAAAAAAAAAAAAAAAAAAAAAAAAAAAAAAAAAAAAAAAAAAAAAAAAAAAAAAAAAAAAAAAAAAAAAAAAAAAAAAAAAAAAAAAAAAAAAAAAAAAAAAAAAAAAAAAAAAAAAAAAAAAAAAAAAAAAAAAAAAAAAAAAAAAAAAAAAAAAAAAAAAAAAAAAAAAAAAAAAAAAAAAAAAAAAAAAAAAAAAAAAAAAAAAAAAAAAAAAAAAAAAAAAAAAAAAAAAAAAAAAAAAAAAAAAAAAAAAAAAAAAAAAAAAAAAAAAAAAAAAAAAAAAAAAAAAAAAAAAAAAAAAAAAAAAAAAAAAAAAAAAAAAAAAAAAAAAAAAAAAAAAAAAAAAAAAAAAAAAAAAAAAAAAAAAAAAAAAAAAAAAAAAAAAAAAAAAAAAAAAAAAAAAAAAAAAAAAAAAAAAAAAAAAAAAAAAAAAAAAAAAAAAAAAAAAAAAAAAAAAAAAAAAAAAAAAAAAAAAAAAAAAAAAAAAAAAAAAAAAAAAAAAAAAAAAAAAAAAAAAAAAAAAAAAAAAAAAAAAAAAAAAAAAAAAAAAAAAAAAAAAAAAAAAAAAAAAAAAAAAAAAAAAAAAAAAAAAAAAAAAAAAAAAAAAAAAAAAAAAAAAAAAAAAAAAAAAAAAAAAAAAAAAAAAAAAAAAAAAAAAAAAAAAAAAAAAAAAAAAAAAAAAAAAAAAAAAAAAAAAAAAAAAAAAAAAAAAAAAAAAAAAAAAAAAAAAAAAAAAAAAAAAAAAAAAAAAABAJbsk2S3JnklukeS2Se6d5H5J9t2g302yvyRJmkyPvdSxwP36Y4TuWOGW/bHDNftjCQBgyS6X5AZJ7prkYUmenOQFSV6b5F+TfCzJl5Icl+TnSS5MsiJJkrTOLuyPLY7rjzU+1h97vK4/FumOSR7eH6N0xyo7tz5oAoDqum/Zf73/Nf7Pk7whyQeTfCPJLwp8+EuSJM3aaf0xzIeS/EOSv+iPcX69P+YBgNG7YpK7JHlCkpcleXeSY5KcVeCDWpIkaVmd3R8DdcdCf9vfltBdQXCl1gdrALBal01yxyRPTPKq/lK5Hxf4sJUkSareT/pjp+4Y6klJ7pRkp9YHdwDQuXyS30jyrCSHJvlmkgsKfHhKkiSNpe7Y6ltJ3prk2UnuleQKrQ8CARi3bZLcJMl+SQ7sF8Kx2J4kSVKbuiss35nkaf0tBNu3PlgEYLh26h+J86Ikn0xyZoEPOkmSJG287ljtU/2x295uHQBgS4/a2yfJS5McleS8Ah9kkiRJWlvn98d0f5Pk/v2xHgATvqT/NkkOSHJ4knMLfFBJkiRpcWsJfKn/sae7ynO71gejACzWbv1j+N6V5NQCH0SSJElq06n9MeET+mNEAEbgJv2v/EcmuajAh40kSZLq9c3+6oBuQcGtWx/AAjCb7fqFX17frw7b+sNEkiRJw+rH/bFkd0zpVgGAYnbo7+XqHs/3swIfGpIkSRpHpyQ5JMm+niwA0M52/ar9hyY5vcCHgyRJksbdaUne0h+Dbtv6YBhgCm7T/9L/0wIfApIkSZr2lQHdVahbtT5ABhiT6yd5cZIfFnizlyRJkjbsB/2x6l6tD5oBhmrH/l6rw63eL0mSpIH0pST7J9m59cE0wBDcJcmbk5xR4A1ckiRJWkvdsezBSe7c+uAaoJqd+29Kv1LgzVqSJEmaZ99OckCSK7Y+6AZo6UZJXtovotL6jVmSJElaZN2Tq96Q5FatD8IBlmXrJA/s7+1v/SYsSZIktVorYD+PEwTGapckT+tXSW39hitJkiRV6IQkL0hypdYH6wDzsGeSV1vUT5IkSdpk3bHyQf2xM8Dg3DzJIUnOL/CGKkmSJA2hC5McluR2rQ/mAWZx1/5N66ICb6CSJEnSUDuyXzsLoJz7J/l8gTdKSZIkaUx9Lsk+rQ/2ATr3TvKFAm+MkiRJ0pj7apJ9k2zV+gQAmOaJ/9EF3gglSZKkKfU1XwQAyzzx/2KBNz5JkiRpynU/xlkjAFiIOyQ5osAbnSRJkqRLLhZ499YnC8A43DTJ+wq8sUmSJEnadO9NcpPWJw/AMO2W5A1JLijwZiZJkiRpy12Y5JAk12h9MgEMw2WTHJDk9AJvYJIkSZJW31lJXppk59YnF0BNW/erif6wwBuWJEmSpPV3QpL9k2zT+mQDqON2ST5f4A1KkiRJ0vz7cpK7tD7pANq6Rn+f/4UF3pQkSZIkLa6LkrwzyR6tT0KA5douydOSnFbgjUiSJEnS8jozyQuS7ND6pARYvLsl+VaBNx5JkiRJ7fpmkru3PjkBFmOXJAe63F+SJEnSBrcFdI8NvGrrkxVgfu6f5EcF3mAkSZIk1euU/mkBW7U+cQHW7upJ/qXAG4okSZKk+n08yV6tT2KA1em+udsvyckF3kQkSZIkDaezkxyQZJvWJzXAlu2Z5PACbxySJEmShtvnkty49ckNsHHb9t/UnV3gzUKSJEnS8DsnyXP6cw2g0K/+RxZ4g5AkSZI0vr6Q5AatT3pg6rbqV+s8s8CbgiRJkqTxrw2wdeuTIJjqCv8fKPBGIEmSJGk6deuN7d76ZAim5LeTnFpg55ckSZI0vX6eZN/WJ0UwdjsmObDADi9JkiRJhyTZqfVJEozRTZN8vcBOLkmSJEkX9+0kt2x9sgRjWujvaUnOLbBzS5IkSdKlO7c/Z+nOXYA1umKS9xfYoSVJkiRpS70nyRVan0TBEN06yXEFdmJJkiRJmrUfJrl965MpGJL9+udstt55JUmSJGmttwQAm3G5JG8rsMNKkiRJ0np7i6cEwMbtZZV/SZIkSSPra0mu2/pkCyq5b5JTCuyckiRJkjTvTk6yd+uTLqiguzfmggI7pSRJkiQtqu6c54DWJ1/QymWTvKPAjihJkiRJy+rQJDu2PhmDZbp6ki8W2PkkSZIkadl9JckerU/KYBlu0j8bs/VOJ0mSJEmtOiHJbVqfnMEi3SvJqQV2NkmSJElq3ZlJHtL6JA0W4feTnFdgJ5MkSZKkKl2Y5NmtT9ZgXrZK8oICO5YkSZIkVe1NSbZtffIG67FDv8pl651JkiRJkqr3vv5paTA4V0ryyQI7kSRJkiQNpS8k2bX1yRysxp5Jji2w80iSJEnS0Douya+1PqmDWdwqyYkFdhpJkiRJGmo/SXKz1id3sDm3S3JygZ1FkiRJkobeKUnu2PokDzbm15OcXmAnkSRJkqSxdEaSe7U+2YMN7ZPk7AI7hyRJkiSNrbOS/Gbrkz7oPDjJuQV2CkmSJEkaa79M8vDWJ39M26OSnF9gZ5AkSZKksXdBkse2Pglkmp6U5MICO4EkSZIkTaWLkjyl9ckg0/InBSa+JEmSJE31S4BntT4pZBpeVGDCS5IkSdLU+/PWJ4eMm5N/SZIkSaqTLwFYiL8oMLklSZIkSZfsz1qfLDIuzyowqSVJkiRJG++A1ieNjMMzCkxmSZIkSdLm++PWJ48M25MLTGJJkiRJ0mxPB3h865NIhulRSS4sMIklSZIkSbPVncM9svXJJMPywCTnF5i80qydleToJO9I8tdJnpjk/knukuQmSa6Z5IqX6ipJ9kxyqyR3T/LQJE9N8jdJDk3yhSSnFfjbJEmSpNX0yyT3bX1SyTDcI8k5BSattLm+neSgJI/pT/C3WeA+sXuSvfuFVd6d5IQCf78kSZK0pR/I7rzAY2RG4LZJTi8wWaVLd16Sw5L8XpI9Wu8o/Tbsl+SQJD8pMD6SJEnSpTs1yS1aHzhT0/WS/KzAJJU27HNJnpTkyqntZkmel+SrBcZMkiRJurju6tVrtz5YpparJvmPApNT6rogyb8kuVOGaa8kf5rk2AJjKUmSJH0ryZVaHyRTw079YmetJ6XUPbbk7f3CfGPRLUJ4cJIzCoyvJEmSpttnklym9cExbW2b5IMFJqN0ZJI7ZLwun+SPk/yowFhLkiRpmr0rydatD4xp5x8KTEJNu+6X8T9IslWmYbskv5PkmAJjL0mSpOl1YOsDYtp4doHJp2n36ZFd7r8a3Tevj+zvx2r9OkiSJGla/WHrg2GW68FJLiww8TTdXpFkm9Y7QgHb9I8TPKHAayJJkqRpdH6S32x9IMxy3MqCZGr8ZvPk1jtBQZdN8oIk5xR4jSRJkjT+Tu8fZc2I7Zbk+AKTTdPs7CR7t94Jirteko8VeK0kSZI0/n6QZNfWB8AsRvfIh6MLTDJNs+6X7fu23gkGolsQ8Yn9t7KtXzdJkiSN//GA27U+AGb+DikwuTTNfplkn9Y7wABdO8knC7x+kiRJGncHtT7wZb6eWWBSabo9qfUOMPBFAru1ASzaKUmSpEX2e60PfJmPe/cLr7WeUJpmb2q9A4zE/ZKcXOD1lCRJ0njX67pl64Ne1qd7xvrPC0wmTbMv9WtPMB97JflugddVkiRJ4+z7Sa7U+qCXtelOvP69wCTSNOuuOvEN4vx1b8jWBZAkSdKiOry/DZWBObjA5NF0e1HrHWDEdkjyngKvsSRJksbZi1sf8LI6jyswaTTdvt2fpLI43aNa3lXgtZYkaaydkeQ/k3ylf0za4X0fTvKvG/zfn+xve+yOf35m7S2NpIuSPKT1AS+zuVX/zPXWk0bT7WGtd4IJfQnwrwVeb0mShtiJSY5I8pokf5zkkUnumOQaSbZf52f05ZPcoF+Mu/th7oX9I7m/1C+01vpvl1Zm6LR+HlPYFZIcV2CyaLp9NclWrXeECdm+P3hp/bpLklS5E/or556V5F5Jdm342d3dW339/geTlyT5RH+1QesxklY20jeT7Nxwf2EL/Bqo1vn1v80Xf98o8NpLklSlHyf5v0l+J8m1Ut+2/eLJT0vywSRnFhhDaaXvLa13EDbuSQUmh6bdsX79b+baSX5aYA5IktTqfuXPJ/mTJDcfwfFIt5bSbyT5uyQ/KDC+0u+23im4pJu5n0gFOqD1jjBx3X2GFxaYB5IkLeuk/7NJnj6QX/nX47ZJXupWXzXsDOsB1HGZJF8rMCk07boVb3drvTPw349saT0XJElaZD9JcmD/A9gU3SbJG9wmoAYd05970tgbC0wG6bDWOwL/ew/hpwvMB0mS5t3Hkjy4/6zjf5408If9LZitXxtNpwNbT/ype3CBSSB1uS+ojqv3v460nhOSJK23X/aPz+vu62fjtupvAzysvy2i9WumcXdRkn1aT/opH+SfWGASSF3XbL1DcAn3sR6AJGnAnZXk75NcrfUH6sB0TxJ4jy8CtITHal659WSfosMKvPjSSv8IOup5UYG5IUnSajq3v7/dukLrc9Mk7/RFgBbYu1tP8qnZv8CLLl3cK1vvEGzUNkmOKjA/JEnaUt1Va29y4j93t++flND69dU4e0zrCT4V1+sfw9D6BZcu7rGtdwo26df6yyhbzxFJkjbVx/tL11ncGgGPTPKDAq+1xtUvJvAIzua2TvKZAi+2tGEW5qntqQXmiCRJG7uP+OGtPyQnpHt82wv7hRVbv/Ya19M5tmo9ucfsaQVeZGnDXP4/jC8OP1FgrkiSdPHl/q/tH2PH8t3YD4rKfOtuT2cB9nIprwp1QZIDWu8UzOwG/cJKreeNJGnafSfJXVp/KPLfv9g+yW3Fynw6za0Ai/kF75MFXlxppX/85N6tdwpWzVMBJEktOyTJ5Vp/GHIJ13E1gDKf3AowZ+7hVZWOTnLt1jsEa7JDkmMLzCFJ0rT6WZIHtf4QZJO27a/qPK/AXNGw+/3Wk3ksupOtMwu8oFJ3v952rXcI1uV+BeaRJGk6dVewXr31hx8zuXuSnxSYMxpupya5RuuJPAbvL/BiatpdlOQFrXcE5uZDBeaUJGn8vcEPB4Nz1SRHFJg7Gm7vaD2Jh27fAi+ipl13Odh+rXcE5r767/kF5pYkaZyd2R/DMkzdlzYHFphHGm77tJ7EQ3X5/vmorV9ATbduZdj7tN4RWIiDCswvSdL46o5db936Q4656J4S4AcDrayhHyS5bOsJPESvKfDiabqdneSerXcCFuYqSU4vMM8kSePp6x4FNjrdU59+UWBuaXj9TevJOzR3SHJhgRdO06x7Xrxf/sfvJQXmmiRpHP1bkl1af7CxELdwVbKy+rqrR27eevIOxdZJvlDgRdN07/n3qJ5puEKSUwrMOUnSsDssyWVaf6ixUNdJ8r0Cc03D6sgkW7WevEOwf4EXS9Nd7f+RrXcAlup5BeadJGm4vd1K/5Oxe5JjC8w5DatHtZ641V0pyUkFXihNs79svQOwdJdLcmKBuSdJGl4HJ9mm9QcZS3W1JMcUmHsaTick2bn1xK3stQVeJE2z9/a3nzA9zyow/yRJw+pNjhsm66pJvllgDmo4vaz1pK3qVkkuKPACaXp9u3/sJNPU3bd5fIF5KEkaRk7+uWaS4wrMRQ1njbEbtZ60FX26wIuj6XVmkuu3nvw09+QCc1GSVL83Ovmnd10/ICiz96HWE7aahxd4UTTNntJ68lPCDh7xI0naQn7559JunOTUAnNTw+i+rSdsFdsn+W6BF0TT6ygf5Gzg2QXmpCSpZv/omIFNuEeSXxaYo6rfN5Ns23rCVvCMAi+Gple33sRNW09+StnJU0gkSRvpHzzLmy34/QLzVMNo/0xc99i/Uwq8EJpeb249+SnpuQXmpiSpTm9w8s+M/rbAfFX9fjr1xwK+osCLoOl1TpJrtZ78lNQ9DcK9fJKkLif/rEZ3affHC8xb1e/FmahrJzm3wAug6fXa1pOf0v6ywByVJLXt9U7+WYNdPRlAme0pZFfPBL25wOBrel2Y5AatJz+lXSXJGQXmqiSpTU7+WY879M99bz2PVbuDMjE3THJ+gYHX9Hp/68nPIPxdgbkqSVp+b7TaP3PwpwXmsmp3XpLrZULeU2DQNc32aT35GYTusqyzC8xXSdLyep1f/md2uSRXbL0RhXVfIn2qwJxW7Q7JRNw+yUUFBlzTq3vE23atdwAG46ACc1aStLxH/fnlP7lykjsn+b0kf5XkX5IcneR7SX6c5BebGL/uqV7fSPLhJAcnOSDJbybZLdO1e5KfF5jbqn1r8i0yAYcXGGxNM4v/sRp7JPllgXkrSVr88cFUf/m/RpL/01/98K0Fje/PkrwzyROT7JVp+d0C81u1e3dG7i4FBlnT7R6tdwAG540F5q0kaXG9ZoIn/92TuP4syTGNxvy7/WPQbpbx6+aWHz+1spkuGvtVAP9WYJA1zU53+T9rsKcFSyVp1Jf9T+Xkf5ckT0rymWK34na3DTy1376xuk7/2LfWY626/WtG6s4FBlfTzer/rNUhBeavJGm+vXoiJ//dc+lfkuTUAmO+pR9qDhrxqujPKTDGqttFY70K4KMFBlfT7SmtdwAG60b9Ii2t57AkaT5N4eT/2v3fefYAH43WXZlxrYzL9v2tD63HVynbuzIydyowqJp2t2u9EzBo7ywwhyVJ6++gkZ/875jkhUnOKTDW6+ncJC8f2a0BDyowrkrpqwBunhF5f4FB1XTrvk2+TOudgEHrFipyFYAkDbuxn/w/MMn3C4zzPOsePbhfxuNjBcZUKdtbMxI3LbbYiKbX11rvBIzC2wrMZUnS2nrViE/+d53Aj20f7h9ZOHTdL7x+UNDKJjq/X4B68CygpdYd2nonYBR+zRMBJGmQjfnkv3vE8QkFxngZndRfRj907ygwlkrpR5MO2h795detB1LTrnvWLMzDwQXmsyRp9l4/0pP/bZK8aIK/Jl/U38ox5Ec7W1xYK5vpnKFf7fKqAoMo7d96R2BUz/I9t8CcliRtuQNHevJ/hSQfLzC+LTsiyZUyXG8tMIZK2bpHdw7SVZKcVWAApfu23hkYlb8rMKclSZvvlSM9+d8tyTEFxrdC3+1vzxuiG7oKQNl0pybZOQP0vAKDJ3XdvvXOwOh+eTmpwLyWJG28V4z05L9bHOw/CoxvpX6W5BYZprEv3Kisq6dmYLr7co4vMHBS101a7xCMzlMLzGtJ0nRO/m+b5MQC41uxn/fjMzT3LDB2Stm+36/1MRiPLjBo0sV1923DvL/k/E6BuS1JuuTJ/xjdvr8kuPX4Vu4XSW6T4flygbFTyvbgDMjRBQZMurjdW+8QjNI+Bea2JOl/ennG6db9L9ytx3cInTjANQEeW2DclLJ9IgNx1wKDJW1Yd88cLMK7C8xvSZp6Yz35737RdvK/ur6X5GoZjh1d3aFsvltmAN5RYKCkDbtx652C0dojyRkF5rgkTbW/zzjdob+svfX4DrEj+1v1huINBcZMKdubUtzVk/yywEBJG9ZdPgeL8uwCc1ySptjfj/iX/1MKjO+Qe/nAvuxpPV5K2c5KcsUU9twCgyRduu5ebViUbZP8e4F5LklT6u8yTk7+59e+GY5vFRgvpWxPT1HdYwp+WGCApEu3f+udg9G7UZKzC8x1SZpCY/3l/44u+59r3VheM8PwggLjpZTt21Ufb/rgAoMjbawXtd45mAS3AkjS4hvryf+dkpxWYHzH1gdbv7AzulmBsVJKd88U9OECAyNtrLevcU7fPclT57yfMF5bJ/lUgfkuSWPtbzNOTv4X22MyDN8uMFZK2d6ZYq6d5MICAyNtrO+uYU7fdoMP40OS7LSA/Ybxua7H+UjSQnpZxsnJ/+I7OckVUt9LCoyVUrbzkuyaQp5fYFCkTXXRKt/4u//t8Zf6b3w/yd0WuA8xHg/whagkzbWxLvjn5H95DeHqkbsVGCeldM9Ioctev19gQKTNde9VzOm3beK/cX6SAwfyLTJtvajAnJekMfSKjNOdnfwvte4x5ddLbduZE8rm+3qK+I0CgyHNa9Ggu8zw3/pZkqck2WHB+xbD1X0x+pEC816Shtwbq658vU7dscbpBcZ3ah2a+t5TYJyU0t0uBbylwEBIW+rYGefzh1bx3zy+vxRnGVcEdGsQPDPJHkv4t5iPKyf5jwJzX5KG2Nv6R0yP8Zd/J/9tumAAVwH8QYFxUkr32taT9PKefa0B9WszLOB20Rr+u2f2v1Lcs//ld56u219OflL/b31kpL+GjFV3oPHTAnNfkobUB/rLocfGyX/7Xp3ablpgjJTSdYtN79hykj6uwCBIs/ZXW5jPfzyHf+MnSd6c5FH90zFWq/u14xZJDugfKbexLyS6/Y7huLUDPkmaua8kuVzGx8l/jc5KctXWk2Ezuh+SflFgnJTS/VbLSXpEgQGQVnNyvrlfFD65gH+z++X+Y0n+MclfJHlykscm2TfJE5L8YZIXJjk4yWf7qwm29N/sPhjcCjAs9+4XIGq9D0hS5U5IsnvGxz3/tXp2avtogTFSSvfeVpPzmh51pQHWnXhvzLYznnxXqVskhmF5ZH//Yeu5I0kV6z6Db5PxcfJfr2+kthcUGCOldN2PSldsMTmfVeCPl1bbVzdxn/7NC2zbavvNBvs96/OENa4zIUljr/uSdGyc/Netuz2vqgcXGB+lfPu3mJxfLvCHS2upuz//0h5eYLtWW7fCvEcRDs/TCswdSarUgRmfuyU5o8DYauO9IrUXEG49Pkr5PrHsiXmjAn+0tNa+v5ET53ksANii5yx752cuXlxg7khShT6XZPuMi1/+h3EsWNXWA7stVWnShcteE+z5Bf5oaT297FJz+m8LbNNaOi3JVZa58zM3ry4wfySpZSeNcFHbuzr5H0w3SF1HFxgfpXzPWOakPKbAHyyt91uz7vK8i72pwDattZcvc+dnrt/wv6XA/JGkVj0i4+Lkf1gt9eRplQ4pMD5K+Y5c1oT8tQJ/rDSvy7+u3M/r9xTYnrV2bpJrL+sNgLnatn+US+s5JEnL7q0Zl1932fbg+kDrSbMZLyowPsogftDcbRkT8k8L/LHSPL852zHJpwtsy3p68zJ2fhbiMkmOKDCHJGlZ/VerR1gt8Jd/C/4NrxNT1+MKjI8yiP5oGRPySwX+UGmevSvJtwpsx3o6P8l1l/EGwEJcLslnCswjSVpG98t4OPkfdtdJTfcqMDbKIFr40wC6EwzPsJZq9rpFvwGwULsk+XyBeSRJi+wdGY97uOx/8O2bmq5fYGyUQXRBkl0XORmfUeCPlLTptQCWch8QC3N5K/9KGnHdAnnXzDh0Cwn75X/4/UVqukKBsVEGU3fLyMJ8rMAfKGnTdY8zZNiulOSrBeaSJM27p2UcnPyPp6prKG3V397ZenyUQdQtZr6wX6bOK/AHStp0p/b3kzNsV03yjQLzSZLm1VeSbJPhc/I/rj6Vuk4sMD7KIDqzX1R67n6rwB8nacv9wSs95d4AACAASURBVCLeAFi6qyc5tsB8kqR5dJ8M328kOavAWGp+/Sh1OQbQyir6zUVMwrcU+MMkbblv9ZeOMXxXS/LtAnNKkkqvUr0EfvkfZ91rWpUnr2llFb163hOwu2Tr5AJ/mKTZ6h4fwzhcK8lxBeaUJK2l7ulRt8mw3d3J/6jn57ap6bMFxkcZTD+c9wS8U4E/StLsvX3ebwI05UsASUNt6J9HTv7H3xVT0ycKjI0yqG4yzwn4/AJ/kKTVPRLwKvN8E6C5PZL8R4G5JUmr+XX1phmu7mo69/yPv6qPpvxogbFRBtXT5zkBjyzwB0laXX80zzcBynwJ8L0Cc0uSZul9GfYv/2cWGEMtvm7R3Yo+UGBslEH1oXk+/s9zKKXh9eV5vQlQyu6uBJA0kLpbSIfIyf+0qnrFpCsAtLLKuiuWdpjH5HtIgT9G0tq64TzeBCjn6v3THlrPL0ka28r/eyc5u8D4aXlZA0ArI+qe85h8rynwh0haW8+dx5sAZb8E+GaBOSZJG+vBGZ67OPmfXBd6CoAyrv5qHpPvOwX+EElr6yvzeBOgrG7hIu/Rkqp1fOGTqk25cZKfFxg7LbeTWk+8zfhigfFRBlc3b9blGgX+CEnr6wbz+RyiqKu5EkBSsf4iw/sy9YcFxk3L7xup67sFxkcZXBf0a/it2f8p8EdIWl/Pmd9nEUX5EkBSlc4v/Fi1jblifxLYetzUpiNS18kFxkcZZL+5non32gJ/gKT19aX5fRZRWHfF1rcLzDdJ0+7dGY6tkxxeYMzUrtel7ty8oMD4KIPsr9cz+XwjKo2jPef3mURhvgSQ1KLTkrwlyQOTXCbDcUCBsVPbnpq6V6a0HhtlsB211ol31SQXFfgDJK2/P57v5xKFeUSgpGV0ZpK3J3nowE76L3bbJL9cxd/7vv7xWgcnOb3A+Gs+dY99rOiGBcZGGWznJdlpLRPvYQU2XtJ8+sz8P5sozCMCJS2qY5L8QZJdMlyXW+UCax9NssMG///dgfVjknzMj2WD7qJ+DZ2K7ltgfJRBd6+1TLy/LbDhkua3KNOQD9ZYvV2TfL3A3JM0/M5N8s4k906yVYbvjat8nG73hcGm3KBfM+vMAq+TVlf3GN2qnlhgfJRB97y1TLxPF9hwSfPrQfP/fKK47pcNa7lIWmvdpe5/U/hX0rW43Sp+tf9Jkj1Wcc/2nyQ5vsDrptn6xwXPtfV4SYHxUQbdB1Y76bZNclaBDZc0vw5azGcUA7gS4JgC80/ScPp5kuf3J7Vj0l29cOSMY9B9SXCfNfwb2yf5Q18EDKL9UtfbCoyPMuhOWu0VW7cusNGS5tuxi/ucorhuUdevFZiDkur/4v9nW7jkfcgeuYqxeOU6/63ui4D9k5xQ4HXVr3Zhv15OVV8tMEbK4Lv+aibdkwtssKT5d63FfVZRXPdL3hcLzEFJNU+GDil+QrRe3ZMKfjDjeHSLqO44p3+3++/8uStry9Xd6lzVtv26G63HSBl83WKlM/unAhssaf49bnGfVwzAlZN8ucA8lFSnDyW5Scbv6TOOR/dowFst4N/v1hJ4h6cGlOkZqetGBcZHGUWvWc3E8/goaZx1Bx9M25WS/HuBuSipbd2l6Q/NNGyT5LgZx+VlC96Wu7slq8QVL5WviNy3wBgpo+jzs066yya5oMAGS5p/J47kEU6sj9sBpOnW/QL9hiSXz3Q8ZMax+emSxqW7xPuA/mqD1vNhin0wtb2swBgpo+js/v1mi+5UYGMlLa7u0jK4QpKjC8xHSct97nn3C/TUHDHj+HRrYC3TLdyW1aTuC6HKZn1ShbQyQzPd4mUBQGncWQeAi3W/dH2uwJyUtPgOGfHq/ptzsxnH57/6hQKXbbskL3D17dL6r1l/EW1khyTnFBgnZTQ9epaJ948FNlTS4nrT4j+/GNiXAEcVmJeSFvdov0dlul414zj9cePtvEeSHxeYL2PvmanNldhamXN/P8vEcymSNO6OXfznFwOzU5JPFpibkuZbt9bHXpmubs2bH80wTucXeQTiVZN8uMC8GWsnD+AqmOcUGCdlVH18S5POcyelaSwAdZXlfI4xIDsn+WyB+Slpfld7bZ9pu82MY/Wu1LF1kud7XOBCem7q+3iBcVJG1c+3NOluWGAjJS2+By7nc4yB2aV/ZEzr+Slp7V3QrzBP8pczjtn9Us8jkpxVYD6NpR/3X3RXvxrPD7FaWUCbvcLpYQU2UNLie+nyPs8Y4JoAng4gDfd+f1/w/n/HzDBmxyfZJjXdNskJBebVGPrd1PeAAuOkjLJ7bW7iPa/ABkpafJ9e3ucZA3SlJF8pME8lzd4PPeb1EvaYcdxel9quaX2udff5fj2I6l5XYKyUUfbUzU28txfYQEmL7+z+0UOwKd06EV8vMFclbblv9ye8rP6q1n0zjCuzPl1gng2x8/q1IKrrrkL5aYHxUkbZ69d7qZSkcXSL5X2uMVDditTfKDBXJW267tfhXVu/WRT04hnG7qL+fW4ILusJAWuqW1BxCO5ZYKyU0faZzX3zZOEJaTo9brmfbQzUNZJ8p8B8lbTxg7ru12F+1Swny92tTkPSPdXhnQXm3ZC+HBvK1Y6vKTBeyvSeBHDdAhsnaXm9drmfbQxYdw/q9wrMWUn/vyP6X4XZuFkup35Fhqf7we6fC8y/ISyIOZQ1MbovKVz+r5UFd+WNTb77FNgwScvrC8v/jGPAuvuLjyswbyUln0pyudZvCoXtNuM4PjbD1F0J8JEC87BqF/VrQAzFgwuMmTL67rCxyfeHBTZM0vI6d0CXxlHDtZL8oMDclaack/8tu+OMY3m7DFd39YeFATfeizIs7yswZsroe9TGJt/LC2yYpOV2q+V/zjFweyX5rwJzV5rqyf9Ord8EBuCBM45n98jTIbuiBbx/pX9NsnWG42r9kwpaj5syzQUx319gwyQtt8cv/7OOEbhBkp8UmL/SlDo8yY6td/6BePyMj8Mdg+4JEMcWmJ9V1sXYIcPypwXGTZlEb9nYBPxWgQ2TtNxet/zPOkbiJklOLjCHpSnkl//5n1R9P+O6MuuUAvO0ZZ8f4K0x3W2YxxcYO2USHXXpCbhV/01o6w2TtNwsBMh63L5fabn1PJbGnF/+V+8VM4zrVzMu+yS5sMB8bdGX+tshhuYxBcZOmUzdkyYu4aoFNkrS8uu++Nu2zeceI3HPJOcUmMvSGPs3J/9r8qYZxvbIjM9zC8zZZTfUk//OlwuMnzKpp2NcZsMJeOsCGyWpTd2l3LDeBbcsYiTNNyf/a/fmGcb3kxmf7oredxaYu8vqy5t6tvkA7F1g/JTJ1d0u9L8eUmCDJBV6LAis0u9M+PJTad45+V+f/zvRKwA6O09kXa8vDviX/45HOGqlQd1Vm//rjwpskKQ2/W27zz9G5kkF5rM09D7q5H/dXj/DOB+d8bphkrMKzOVFNfST//sWGENlku234UR8WYENktRugSmYlz8vMKeloebkfz7+boax/l7G7Y9GfNn/lTJsnykwjsoke96GE/FtBTZIUptOavcZyEi9tsC8lobWRy69QBML/SLyFxm3bj2AjxWY1/Osu2rjChm2BxUYR2WyvWHDyfjxAhskqV27t/ssZIS2nthCVNJ688v/fD1hxnHv7pcfs2smOaXA/J5H/z6CX/63T/KdAmOpTLb3bjghv1lggyS1q1vFHeZ9oHN4gbktDeHk3y//87XPjGN/i4zf7xeY4+ttDCf/nWcWGEtl0n1uwwl5UoENktSu7nJJmLfLJ/lagfktVe3DTv4XtgjeLOP/ipGcWG7JYQXm+lr7wggu++9cZURXYyiD7biLJ+S2Ht0kTb53tf1cZMR2S/KDAnNcqpaT/8XZLskvZ3wdzkny1iR3yXhdK8nZBeb8Wk7+uy+Sx+BNBcZTOnPDg7PWGyOpbd9v+7nIyN3ILx/SJbLg3+Kt5fbWI/tb4roF9MbmhQXm/Wr60oiuzvj1JBcVGFNpJclO3aS8VYENkdS2iwb+TF3qu3uScwvMdal1Tv6X41/W8Rp9PsndMi6XTXJ8gfk/6/iP5Zf/HZJ8q8CYSit9e3YTc+8CGyKpffdo/SnJ6D3WryCaeB/sTwhYvOfO4fV6T5LrZjweVWAfmNLJf+clBcZUWtmgO3QT87cKbIik9j2j9ackk/CiAnNdapF7/pfrrnN63bp75w9Isk2Gr7u14TMF9oXNXfY/pqsR75zkggLjKq1s0H27ybl/gQ2R1L5/av1JySR0B6CHFJjv0jJz8t/mUaRnzfE1PDrJ9TN8ty96JdbnRvbL/+WSfLfAuEorl+qR3QT9kwIbIql9x7T+tGRSB+ZHFJjz0jIa88n//fvHm1V1+Jxfy9OTPCbD94EC+8WGHZVkl9aDMmf/VGBcpZWN9KRugro3RVLXeSM+SKWeK/dPn2g976VF9oGR3vO/VX+PffcY6d9IXYv6kesf+kcNDtVdCuwbYz75f0yBcZVWNtFzukn62gIbIqlGt2n9qcnkHg94WoF5Ly2iD430S9Vtk/zjBn/n01LXdRd4ufsni1/9sCWfLLCPjPHk/+ZzvvVEWplzL+0m6lsLbIikGj2+9Scnk/PQovejSuvpsJH+8r9jkvde6m89NLV9foGvc3eP93UyTPdtvI98doQn/90Cht8r8P4jrWym13eT9X0FNkRSjV7T+tOTSfqLAnNfmlfv79e5GJsrJPn0Rv7e7oSnsmcu+PX+cZKbZpi+2GgfGePJ/zb9Yz5bv/9IK1vo0EUskCJpuHUfytDifuJ3FJj/0jwu+x/jL/9XTfK1zfzdu6auayT55YJf9xOT3DjD8/BGxxk7Z3wOLPD+I63M0LvS74itN0RSjc5MsnXrT1Emacf+GdCt9wFprY355P+YLfztD0ptb1nC639Cv+bA0NZzOGGJ+8hYT/6fUeD9R1pZxZNp8uUCGyKpTjds/UnKZHX30p5cYB+QVtv7RnrZf/fL/tdn+Pv/KrXddknzoLsd4moZlr9e0tgcOdKT/4f2T8No/R4krczYp7qJe2yBDZFUp0e3/jRl0u6V5PwC+4E0ax+c8C//F/eJ1PeZJf7KPaT5sOcSFmId6y//3SMwzynwHiStrKKju8n7owIbIqlOB7X+RGXynl1gP5CmfPLf/fL/jVXePlb9kYfLXPX+zRmWRT4S8DMjPfm/Y5IzCrwHSSurrHtv/++FS1pviKQ6faH1pyokeVuBfUHaXO+d+GX/l+5+qW+ZC1/vn+HYb0FjMNbL/m+T5BcF3oOklTV0XDeJTymwIZLq9MuR/qLFsFw2yVcL7A/SxnqPk/9f6bWp7xZLvF+7uzT85hnOIqynzvnvH+vJ/y2tVaMMu//sJvJpBTZEUq3u0PoTFpJcz68sKthYT/67xeu+uY5xOb5/pGd1b13iXDlmQHPlkDn+3Z9OcrmMj5N/rYyg/+om81kFNkRSrZ7a+lMWeg9cwgJV0qx9YKRXSK32nv9NdevUd5UkP1vinHl+hmHfOf29fvmXUrqfdBP63AIbIqlWh7b+pIUNvLLAPiE5+R/Pye6jlnxb3Y1T3y79tq7nbx3rgn9O/rUyok7qJrXHLUm6dN9v/WkLG9iuf4xU6/1C022sJ/9XT/LtOY7Tv2c4Dlvi/Pl4huHwdT5bfKeMj5N/rYysbv2/pS2GImlY7dH6Uxc2cO0kPy+wX2ia9/x3X0KNzTXmfPJ/cTfJcL78+PES59EDUt9T1/i3fXKkJ//dLS0+d7Qysk7vJrd7KyVtrO4SSajkIQX2C02rw0f6y/+iTv67Xp7huGuS85Y0l7oFFrdNbXuu4e9y8i9lUJ3RTXC3AEjaWK9v/ekLG/GGAvuGptEXRrqS+W5Jjl3guJ04oJXv1/Or91p6dOpbzRdDYz35v5XL/pXx1j3y0yKAkjbat1p/AsNGXHaBv1xKF/f1JFfK+Cz65P/iHpFhefMS51X1RyUePOPf8gkn/1IGuwigxwBK2lgX9c+FhmpuluScAvuIxtn3+kvkx3jy/50ljeGHMyzdpfnvW9LYPCi17T/D3+DkX8pg+2k32U8rsCGSaja0X3GYjmcV2D80vk7s74Mem2su8eS/64IBLiR7mf6S9kWPzUdT281neKJBdyXW2Ny2Xx299XuQtLLgTugmvMkuaVO9pvUnMmzC1v2vUK33EY2nbk2ke2acJ//fbTCeL8vw7NKv/bDIcbmw+JdM2/SrhG9qUUwn/1IG3Y/S3wfQekMk1b0UFqq6zmYOVKXV9vSMT6uT/5V+3xziOgo7L+HLxZektiM2ss3/PLDFHVdz8n9qgfcfaWVJfb+b+McX2BBJdbt+609n2IzHF9hHNPwOzfjsnuQ/Go/r8zNMOyZ5zwLH5bjU9pJLbe9B/VVXY+NRf1qZYN0jSZt9MyxpGD2l9Sc0bMEHCuwnGm5fGeFlzRVO/lf6BdWG+ijF7oT3rxc4Nt3JZ1UP32Ax4D/PODn518pE+1K3A3y1wIZIqtsHW39KwxZ0K7Y7kNNaT1CvnXHZo799a6VI3YKdQ/bbC1ow+69S1w2SnJFk34zT7V32r0y3z3Q7wVEFNkRS3c7qV0eGyvYrsK9oeD0y41Lt5P/iFaeH/hmyV5Ivznlc/j21FwK8ccbJyb9WJt5/P4nkYwU2RFLt9m79iQ0z+LcC+4qG09syLhVP/i/u2Rm+bZM8LcmZc3wawFVa/1ET47J/rSjv7naG9xfYEEm1e2XrT22YwfWSnF1gf1H9ThjoCvWbcq1+YbmVov0iya4Zh+vPcd2Rh7X+YybkDv08bL0vSCuNe2u3Q7y9wIZIqv/M0K1af3rDDJ5TYH9R7bqFze6X8ah+8n9x/5BxuVd/Gf96xuRlrf+IiXDyL+WS78WvL7Ahkup3p9af4DDjZbpfLrC/qG6vy3hcu3+m88oAuiDJLTMu3Rfj+yT57BrH5PDWf8AE3CbJKQXmv7RSpL/Jgh9xImk8vbz1pzjM6Hb9yUbrfUb1+mmSy2cchvLL/4YdOeKryW6S5KX9kyVmHY/uf8viOPmX8iv9WbdzuFxS0iwdP+IDN8bnVQX2GdXr9zIO10nygwLjuZYekXHbMcmjk3yiv91kS+MxlrURqnHyL2Wj/UG3gzypwIZIGkZuA2Aodu7Xrmi9z6hO3f3aW2f4hvjL/4adOKGT3lmeTNJdscR8dccqpxWY69JKwX47/TNwW2+IpGHkNgCGZJ8C+4xq1P0Se9eM4+R/KPf8b/ExVBPwxhnGYt/WGzkyTv6lbLb/XgT3vgU2RNJwbgPYpvWnO6zCvxbYb9S+QzN8103ywwJjOa+6H6DG7nkzjMMzWm/kiDj5lzLb1by3LbAhkobT/Vt/wsMq7Jbk9AL7jdp1VpJrZtiGtNr/rJ2aZPeM234zjMMLW2/kSNzZyb+UWfq1bofZo8CGSBpO7239KQ+rdECB/UbtGvqtS3sm+c8C47iIDsu43XOGMTiw9UaOgJN/KTO3S7fT7DDjKqWS1HV+/6sqDMX2Sb5TYN/R8jt34L/+j/nk/xIrUo/UXWb4+9/ceiMHzsm/lJk7Z8Od59QCGyRpOD233Wc9rMmDC+w3Wn6vzrAv+x/qo/5W03lJ7p5xuusMf78vANZ38u8WLykz160j87+OLbBBkobT90fyOC2m5SMF9h0t98TyOhmm60zk5P/ifjrwKzU25W4z/O2+AFgbJ/9SVt3RG+5EnyqwQZKG1d7tPvdhTW7UnxS23ne0nLpHsA3RXkl+VGD8lt1R/e06U/sC4ODWGzlATv6lrH/dlX8usEGShtX72332w5odVGDf0eK7sD+RHprr9Y9bXZlob8i4zPKobYsArv62Cif/UtbUP264M/19gQ2SNKy6xUNv1u4YANbkiklOKrD/aLF9OMOz2wgf9Tf1RQGfMMPf+4LWGzmwRRWd/EtZc5d4v3l6gQ2SNLwObXccAGv25AL7jhbbwzIsV07yjQLjVqELkjwi4/CSGf7ep7beyIFw8i9l3f3+hjvVwwtskKRhHqgN8TJbpm2bJF8rsP9oMf0kyXYZjssk+VyBcavUL5PcJ8N36Ax/a3cMzuY5+Zcy//W7bl9ggyQNs9e2OyaANfuNAvuOFtNfZVgOLjBmFTszyZ0ybJ+d4e+8TeuNLM7Jv5S5dYMNd65rFNggScPsnP49BIbmsAL7j+a/+F+3kN5Q/GGBMavcKQNea2aHJGfP8Dd2t3+wcXdPckaBeSitjKSdNtzBtu4vt2q9UZKG2cvaHR/Amt28P2Fsvf9ofh2R4eiuvvRYyi3340v/ajWg1eq39Lf9tPVGFnaP/iqQ1vNPWhlJJ29sR/uPAhsmabhXAey5/OMDWLe3FNh/NL0V5Lv7/i36N3s/S3LLDMvzZvi7PtR6I4t6wIxXT0jKzH1pYzvbhwtsmKThNsTHbsF1kpxbYP/RfB5NunuG4ZUFxmuItwPcMcNx+AjXq1iG/+PKGCmL6O0b2+EOKrBhkobdg5d/rADr9qoC+47W31EZzn3Nbj1ZW9394PdMfVfor4zb0t/zwNYbWswT7RtSFtVfbmyne1qBDZM07H6Y5LLLP2aAddnVQlOj6IDUt3V/GWbrsRpy3ZpVv5vhL+54Qf9FAclWSV7QX8XTen5JKyPtsRvb+e5fYMMkDT+XNDJELyyw72h9DWGhuCcVGKexdGD/hUpFX5xh+49uvZGF1sM4tMB8klZGXrcw6a+4QYENkzSOX2duuPxjCFiXXZKcVGD/0dr6Zuq7fJITC4zVmHrXpR9rVcDNZtz27hfvqbumK2KkLKuNPrJ7+yTnF9g4ScNvSI/igos9o8C+o7X16tT33ALjNMa+VuxL59fOuN3dFwVTdsf+EY+t54+0MoFO72+12ahjC2ygpHH0qOUeS8C67ZDkPwvsO1p93crhlXW/Uvv1f3F1j4x7QusXOcm1Z3yqyHczXd1JyJ9Y6V/KMvvC5nbKdxfYQEnjqLuc+qrLO6aAufi9AvuOVl/1x/89u8AYTaFDGt8S8E8zbuefZ5q6Y4IPFZgn0srEOnhzO+ZfFthASeOpOxiCIdkmyXcK7Duave+ntq37J6S0HqepdFyjRwXeYMZbabvV/6+V6blPkp8WmB/SygTrvoTepN8usIGSxlX3oQ9Dsl+B/Ubj+aJxnwJjNLW6Z8m/aslXA3xgxm3r/ndTcvn+iQ0XFpgX0spEu9/mdtKbF9hASeOq++Xrcss71oB1cxXAsKpw7/fmvKfAGE356pC9l/AaP24V23TvTMcDkxxfYB5IU+9aW1oAyZMAJM27v1/e8QbMxWML7DearVun9j3Pjqva161xdb0FvcZ79itsz7Id3SPvpmC3/hGNrV93Sdn8EwAu9o0CGyppXHX3PN5uOccdMBfb9vcSt953tPm6y4ovm7pW88uwFlu3Ov9Lk+w856uFPrOKbXhExq275eL5Sc4s8HpLyn931Cw771sKbKik8fWtJDsu/vgD5sbJW/2qLwB4WIEx0iXrFqJ7+pw+j166in/3S7P8CjdQ3UKX+1rsUkrFXj3LTvzMAhsqaZwdtPjjEJib7foTzNb7jYa5oFq39sk5BcZIG+8n6/wi4Mmr/PfulfHpvtB4UJKvFng9JWWjPX6WnfmeBTZU0ji7KMkDFn9MAnPzhAL7jTbdy1LX/QqMj2b7IuCAJFdexWv70P7WtjF8UbXWX/wf2F/V0Pr1k5T1r5Nzxf4gvfXGShrv5ZfdwlgwBNu7rLV0v5e6XlJgfDR7Zyd5Y/9ErM25W/+/nfW/290Pf92Mww79AqnHFni9JGWLndfvtzNxyaOkRfb+xR6jwFw9scA+o41319T1qQLjo7X1yf5Ed5dLvaZ3T3LGKv9bz87wdU9Q+JskJxZ4bSRl5rrbc2b2LwU2WNK4e9LijlVg7lcB/KjAPqNfba/UfYqE+/+HX/dL/9uT3D/J3mtY3f6ofi4M9X3vIUk+0j9to/VrISmr7uDV7PTPLrDBksbdWUlutrhjF5irpxTYZ/SrXfoX2ipuWGBs1LbuSoHrZ1i6Lyvuk+RNSU4pMIaSsq72X80bwF0LbLCk8ffdJFdY3LEMzE33rPmTCuwzuuSvs1U9tMD4qG2/neG4fZLXe4+TMra2tKbJJezYLxrQeqMljb/3jfjZyIzL8wvsL/r/dYszVvXcAuOjdr08w1rR39pfUkbX6Um2We0bgkd7SFpWL1jMcQ3M1ZXXcA+wFtcXUtebCoyP2vSRtRx0N+RxlVJG2RFreUN4dYENlzSNukeP/s78j2tg7l5ZYH/R/3RY6jqswPho+X1tgLe1va/AuEnK3HvxWt4QHl1gwyVNp27F7LvM/9gG5upabpEr0ztT19EFxkfL7XtJrpHhvZ9dUGDsJGXuPWCtbwqtN1zStPpZkqvP/xgH5uqQAvuKkrelrh8UGB8tr+OTXDfD8+ICYycpc697dOcV1/rG4ANM0rL76MDun2R6btrfttJ6X5l63RcxVf2swPhoeSf/e2V4Lpfk5ALjJylz7yvreXP4pwJ/gKTp1d1nDZV9oMB+MvW6hfaq+nmB8dHiG+rJf+eZBcZPUuodR/9+gT9A0jR73vyOc2Du7lZgH5l6/5C6TiswPlpsPxrwyf/2Sf6rwBhKykJ62HreIK5X4A+QNN1eOr/jHZi7IwvsI1Putanr9ALjo8We/HfHyEP1+AJjKCkLqbtFcdf1vkn4hlBSy140n+MdmLuHFNg/ptzrU9cJBcZHi2noJ/87JPl+gXGUlIX0zXm8UVgHQFLrDrQwIAVt3T/6q/X+MdUqPwXgmwXGR/Nv6Cf/nacXGEdJWVivmscbxaML/CGS9OEkO8/jTQ3m6CkF9o2p9sHUdVSB8dF8G8PJf/cZ6gkVUkbdA+bxZnE1jzuSVKSvJtl9Hm9sMCc7WfG9Wd0aDFW9t8D4aH79Z5I9M3wvKTCWkrKwftk/4nMuvlLgD5Kkrh8mueW83txgDl5WYL+YYl9PXS8vMD6aEPbdtwAAIABJREFUT2P45b9znSRnFRhPSVlYn5rnm4aDG0mVOqe/PQkquGaS8wrsF1M8MavKrSHj+eV/DCf/nfcVGE9JWWjPneebxt4F/iBJ2rDu1qS/7Bdig9beUWCfmFrdo/aq2qfA+Gj9V5tdN+PwoALjKSkL7/bzfOO4TJIzCvxRknTp3jvP+51gje5QYF+YYpdPTbsXGButvbHc89+5bJIfFBhTSVloJy7iR7H3FPjDJGljHTOiX2oYrs8W2Bem1q1S1wkFxkfTPvnvWI9Cmkb/dxFvII8r8IdJ0qY6Ock9F/HmBzN6RIH9YGo9LHX54WR4je3k/25JLiwwrpKy8B6+iDeRXb2JSCre+Un+aBFvgDCDbZIcV2A/mFLPTl0HFBgfzd4P+pXyx2KXfh2D1uMqKf+vvTuPuq0u6D/+ucyjDOIA5gASDqghaA4YKmkaDuCQWvrDSiLNpTiQw68YMkXITFFDEZMcM+cBtUK01HDCOUgNFRFQQUAmmS73+a3963tXD7fn3vsM55zvd+/9eq31/kOXyDl777OfPX6/mcX0f9tPa2fypQa+oCRtrO6Rx1XT2hHCBjyvge1/TJ2Udt27geWjxd/5H9prZG9tYLlKykw6fZo7k6Ma+IKStJjelWTzae4QYQHbloF4am//Y+mTaVd3EfKCBpaRxnfy/5QGlqukzKznTnOHcq8GvqAkLbZPlBGQYZZcLJ/tY9ste0sDy0jjmOpvrbsnubqBZSspM5sWe+r7se818EUlabGdmWTnae8YYZ6dHIDPtFulXQc1sHy0cD9IcocMSzcl7jkNLFtJmVlnzWLn8soGvqgkLXWaQBcBmKVTG9jux1J3kt2qzZJc1MAy0vDv/HevnLyngWUrKTPtpbPYwdyngS8qSUvtS+XuCMxq+q3a2/xYOjZte1UDy0jDPvlP+R3UXraSMvPuMqsrjD9s4MtK0lL7iNkBmJFuO/tuA9v8GPp42rZ3A8tI/933B/jYf+f/lPeAay9fSZlp35zljuavG/jCkrSc/nSWO0tG7bgGtvcx1M260Lp/aWA5jb3uzv+dMsynja5rYPlKyszrBh2emfs18IUlaTndkOSus9xhMlq/3sD2Ppb2SNse3sAyGnNDPfm/Z5JLG1i+klKlmR/Pmg1AUp9fBYBZvAZwfgPb+xj647Tvqw0spzH2w4Ge/O9pgElp1H21xo7nZQ18cUlabnesseNkdN7QwLY+hj6c9j2ugeU0ts5NcvsMT/edjMcljbsX1tj53LWBLy5Jy+3wGjtORudhDWzrY+iqJFumfZ9tYFmNpaHe+d8tyX81sHwlpVo3JbldrZ2Qx9kk9bWZDpzCaG3uHd2Z1V1s6cO4EEZrn35DPfm/bZKzG1i+klK1M2ruiF7QwAKQpOXkAgCz8s4Gtvcx9Dfph3c0sKyGXHd3/FcyPN3dPlOLSppLcljNndGuSW5sYCFI0lJzAYBZeXID2/sY+k764ZZJftrA8hpi36v5WOwUdd/J4NuS5pL8MsmOtXdKpzWwICRpqbkAwKzsWKafrL3Nj6F7pB+e1MCyGlpO/iWNoXenAU9oYEFI0lJzAYBZOqOBbX4MvSr98b4GltdQGurJf/fO/zkNLF9JaaYmxrvZIsnFDSwMSVpKLgAwS89rYJsfQ9286JulH7Yvry3UXmZ9b6gn/904Bkb7lzQ3r/OSbJJGvKaBBSJJS+no2jtORqU7QVndwHY/hg5Kf9wryTUNLLO+5uRf0pg6Ng25RwMLRJJ6uxNlFE5vYLsfQ/+Yfvn9BpZZH+tGxN8tw+PkX9LcAnVTyN45jfliAwtGkhbby2rvNBmdpzWw3Y+ha5PslH45poHl1reT/yHe+b99knMbWL6S0lz/kga5gi2pT7289k6T0dkmyZUNbPtj6Dnpnzc0sNz60FDv/Dv5lzS3gR6fBm2d5NIGFo4kLaZX1t5pMkpvaWDbH0PfT7Jp+mWz8vpC7WXXct2gibtmeJz8S5rbQBe0PMDtqxtYQJK0mI6vvcNklO6W5KYGtv8x9OT0T3fR4tQGll2Lfcudf0kj7Zg0bK8yQEHthSRJQ5ovnGH5WAPb/xg6K/3UTfF0SgPLr6VOL9MmDs0dytMqtZevpDTbjX0Y88Qox5L6UPfEEtTwa54CmFkHpr+OsJ38/96fZKsMjzv/kuYW0QfSAwc3sKAkaWO9Ju3af6CPuvI/POY9mz6ZfusGfbq6geVYozVlrJbuiYihcfIvaW6RPSQ90O2ozV8qqfVOSrv+vPX3vVix2ya5pIHfwRhOIvdN/58YOaeBZTnLfpbktzNM3WP/P2hgGUtK830jPfLcBhaYJG2od6Vd/5zkoiSb1/4gTNUhDfwOxtBn0n/dI/AnNrAsZ9GnB/wEVHfy786/pLlF9vT0SDdQyy8aWGiStL5OS7tPUV1RPuMT0j+3rv0BeubNDfwWxtCjMwyPTfLjBpbnNLomyYsH+sh/547u/EvK4vtJki3TM6YElNRyn0ub7jHvM56R/ukeVX57kt1rf5Ce2Lzc8az9exh6/9nyHMpLtE2SY5Nc38BynVTdzBh3ynAZ7V/S3BI7Kj3U7chXN7DwJGl9c0q36PfXeX/5rumX88pnv7YMtOiJgI27pceCZ9IzMyz3HMCUkt9O8tAMW3c8/MMGlrWk/nRtn4+f3t3AApSkhfp52nTSOp/zdemXi9b5/FeVkbxvU/uDNe5uBgWcej8d6Fzy90/yqQaW71L6epKnJNk0w+bkX9LcMnpjej5y7ZoGFqIkLdR2ac9Z63zGK3p20nLJBq5md3/Q7lz7AzZsnySXNvC7GHJ/neG6b3n95roGlvP66l5rekTGwcm/pLlltHoIx0qfaGBBStJC3T3tjfS90Hu9f5L+uHIjy/ym8tjyr9f+oI3aO8mFDfw2hlq3/e2fYeuetnlpec1proHOK08Bda8sjIWp/iTNLbPuCfree3ADC1KSFuqgtPco70Kf8+wkq9IPS7n72D3tcKjpDv+XuyQ5v4Hfx5AHBOwuto3lgtJfJvlqufgxq2XcjWnx+iQP7NG+a1Kc/EuaW0H7ZiDObGBhStK6PTdtee4GPuuB6YflnGR0d7yPTrJr7Q/f2OPD/9XAb2SodSfFYxxs8olJ3lCOy66e0LK8scz+cXKSpya5XcZr93kDoUrS3BL7ZAbkMQ0sUElat7elLe/cwGf9YNq32QrXxw1J3pPkQbW/SCO6CyL/0cDvZIjdUMZcGLNNkuyV5LFJnp3kuDKGwEeTnJ7k38tTOmeW//zeJH9fBiZ9XnmC6lc9wXOzk/8fNbBtS+pvB2RAVpXHz2ovVEmaX3fXqiXnbuQuW/doacu2neC6+UaSPyr/n2O2ywIDQ2oyfS3JFrVXMIOwh5N/SVlZn8kAHdzAgpWk+XWPq98i7dzt3djnfUXatvMU1tHlSf4myZ4Zrx2SfK6B38sQ69s0m7THyb+kuQnUjZs3OKvK1fbaC1eSWny3/ncX8VkvaXzwssVcxFjJxZru3bhHlUeXx2abJP/cwO9liHXz0cNyOPmXNDeBPp0BO6SBBSxJ83tV2nDSIj/vM9L2wHWzWGffT/LiMqjZmHSPq7+/gd/M0LqqwSlBad8dk/ywge1XUv97cAbMUwCSWqs7mWzBYgd7O7cMttfq9HWzXHfXJDllZIO5dev+Hxr43QytbqrN7WqvXHrjzqbqlJTJNOi7/2uZEUBSa9Wec7WbNmvNEj7v76VN96q4Dj9XHuXefCQXAd7XwO9maL279oqlF5z8S5qbYKOZ+ejzDSxsSVrbyyvvE5+9jNkLWnwP/j4NrMtuDu5nJdkyw9Zd6PhwA8t7aB1Te8XSNCf/kuYm2GkZkQMaWOCStLbuPc5NK+4T/2UZn/mJac+BDazLtV2Y5PkDn0awGxDysw0s66F1WO0VS5O6mUh+3MD2KWkY3ZTk1zIyH29gwUvS2h5faV+4Y5Lrlzl2QWt3uZ/WwHpcaOaEY8tyHuoUgd9qYDkPqdVl0GKYP8CpAf8kzU2wd2WE9ilXPmovfEnq+kKlfeFTV/CZX5C2HNnAelxflyX5iyQ7Z5gnJ5c2sIyH1NVJ7ld7xdIEd/4lzU24G8q+ZZTe3cAKkKS1dYOUztpK5na/PMkuacerG1iHG+vKJCck2SbDYprdyXdxkr1qr1iq+tUkFzSwLUoaVm/MiHV3La5tYCVI0lyZim+Wo8jvPoEnof427fhIA+twsf1NhuekBpbr0Looyd1rr1iqcPIvaW5KNyJuk5E7voEVIUlre1HP7ph3FxAenDb0aXTsbrk9MMOyY3kqpPayHeKTAKMbqGnk7urkX1Km00tq7+BaGcDo4gZWhiR1XVMO/qZt53IVeBKfuRuc6hYz+Mwb+z5zPasbPG+LDMuxDSzXIXZpmeaS4du3DB5ae5uTNLzOKzP4UOZsrr1CJGltX5/BCPsvn/BnPiV1tTQF4FI6OsOyRwPLdKj9YoBPjXBz+5f1XHtbkzTMfrf2Tq4lmyU5u4GVIklrO6KH458cnHpOaGCdLaduCsb9MhyrzLAz1a5K8ujaK5mpDaR5TQPbmKRh9sXyN5p5HtHAipGktX1zSvu6bud/2hRPTropVms4t4F1tty+k2TbDMPdGlieQ++mMuUlw/F8F84kZXqtSXL/2ju6Vn2ogRUkSWubxpzxfzLlz3xhkttntvZpYF2ttDdnGH6ngWU5lt46wDEkxmbTJG9oYFuSNPy/F2xgSqxfNrCSJGmuvA86SfvPaB/XjWGwXWanr4//r9vjMgzva2BZjqXPJblV7RXOstw6yRkNbEOSht0vTPu3ccc0sKIkaa4MbDcp9ygjic/qs58xo8fatx/Q1HOXlkH0+q4bwPKjDSzPsfSDJL9ee6WzJN2juD9uYNuRNPyOqL3D64Otyx/T2itLkib1Pv1Dk1xW4fN/dgbTAx7dwHqaZN8uFzWGMLju6xpYnmPphjK38ya1VzwbHYPlOWXwz9rbjKTh9+3y95hFOLiBFSZp3F0/gblau/eDj6p8sPntMuvANPxKkqsbWFeT7kMDGqn38CTXNbBMx9Knk9yu9kpnQbdN8vEGthFJ4xn478G1d3x9Y0BASTX7yApP/J+W5JwGvkfXz5I8LJPV3en8VAPfbVodm+HYN8l3G1imY3rf8ym1Vzo388gkFzWwbUgaT2+tvePro+7O0pUNrDxJ4+ygJeyvuse77pDkiUne2OiBZjfF1SsnOGr5sQ18p2lfue8u4gxFNyjk2xpYrmPq7QZ+qu5WZT3U3hYkjatLkuxSewfYV0c0sAIlja/u3fnFOi3J6gY+82I7O8kBK9w3/0E5QZ4beN16fVKG5ekDfW2j1bqxP55lbICZW1W29Usa2AYkja+n194J9n1+1q80sBIljaerkuy5hP3U+Q185qV24woGpfmT8jTB3IgGdzskw3LXJN9qYNmOqS+XVzGYvm7GFdP7Sao5Fsyq2jvCvtu3HKzWXpmShl+3r3n0EvdRFzbwuZdad9FiqbpXB05s4LPXqBvE8VEZ3ow7pzawbMdU90TJG8r880xet1zf1LMnsiQNq2uT7FV7ZzgUxzewQiUNu+uW+bj3lxv47Evtw8v4nm9p4HP3cfto3UtG8jpHS3WvYByXZKfaK39A41u8NMkVDaxbSePuJbV3iEPSTcX1nw2sVEmL7ydJ/j7JoUn2S7JreSRq03Lge8ck+yf53SQvLzN//LjiHfEHLXP/9KoGlvVS66aGW6r3NPC5a7emnGgMzbNdBKjS5WWa0O1rbwA9tW2SFyW5uIF1KUlfWcHrlazHAzzWJfWic8rgJ1usYAaQ7k7ra5J8oTx+Pa3Puro8MrqSO3F7lvfE53pSd5dsx2V8T4+L/0/vT7JDZmvzKf//H9fAch1rl5S7Rrec8joeim7/9WIn/pIa6vok96y9cxyqVzewgiWt/2S6e0x8mync5XlEkhPK1dVJnGz/MskpSe42oc/4vAaW/2J7xTK/41ENfPaW+n6S38hsbF8G7ZvmIHJblBkiai/XMbd2v/RrU1zPfdZdbH19Gai19rqSpLl5HV17Bzlk3aBF32tgJUtj7fwyunJ3B/QdSU4uc8s/Y4bzXXd3QvcuTwkck+SkJO9L8pkkZy1Qd1LzjST/VB7XP2QKFylSpvpazPRq3YncseUx/G5E/X+Y4bRs31vBd398A9tfa3WPzb85yc7LWJ53X+Q/t9m81y+uTPLETI+LPO30r2Vdj/1x0m5/f3CSj41s9hFJ/ekbM3hKb/Qe6FUAaab9IsmRRq5e9KOpz0/yySTnJvlpuQDxiSTP3cD0gnsk+dyU1+NVK7yDvMOUX8fo+2/kmCW8FtCNhXFeuYBwdnly5hnl8cHuQnfKhZrfWmC7WFPG1tglk/fHDSxL3byLyuwbDxzZtFLdVH5/XfahtdeBJM1tYIDge9XeYY7FKxpY4dJYBvLr5gxn+roTv3+b0nq8JsnDJ/AZ39/ANtlyV5aT+e5kbZMNLMcHTeiiw18kuX0mo7vT/MUGlqHW33nlVah7Z5i6g+iXlXFkai9rSZpbRN0roMxI967iVxtY6dLQ++3aP/aR2bnc8Zv0RZz7TfAA/cYGtsu+DOzWvZrywiSPS7JPedKj660T/PfcVF7LOay8VtDNsrFY3VMG90nyh0k+3sAy0+L7r/L60xOW+QpKC7rxXR6d5HVe75TUw/5pZE9mNaE70Lm2gZUvDbUP1P6Rj9QhE16Ht5rw5/uzBrZNbfhVjzPL0xpvLneMjy+PkZ9cLkp0s2tc6J3qwXRTGe/khPLayEpmNZmmncpF5ZeVMVu8UiSpr12c5La1d6pjdUQDG4A0xLq70HZs9az0VYCvT+iR/4WsKu/m1t5GJW34dYGPlNdEHl+ePJnVnaru33OnJI8q0/W9ozzWv6aB5SJJcytsTXl6iUq6PzL/3MCGIA2pbpq9A2r/uEfuIctYb9eWu76/OaPP2D16fEED26ukxe8jvldmGHhHeTLkOeWpo4cluW+S/ZLcuVww2Glet5z3Cks3TeFDyz7gj5L8eZI3lcFPzynTGdb+rpI0rf52RsdZbEA39ZhRYqXJ1T1ZQ31nbWQ9XV8e9X51ucN3iwqfccsyev2njQ0gSZIG3tnzZuuhsu6dN+8ySivvUxsYrOlpSd5W3h8+qwx+0t352WrGv/exuF25y/b4MkjbYeVO3YPKzAytLfftkhyY5PAkxyV5d5LTy0WKbnv5bpLvz+ucdf7z/C5u4LcgSZI0N2/Kv+4JKBpyQgMbhtT3upHK5+tOMl+a5NIN/DPdXeC+2qq87vBH5XHYbtC095beWUanPrI86nrH2h92ZDZPslu54PG8sj4ua+A3IkmSxtfzax8YsfDBojmMpeV3/jq/qQeWu7Yb++cmPcr8tMcN6b7X0WUU6muXMaVed2f7SZUeuR+77oLNUxfxeoQkSdKk+idT/rVrd3eIpBVNH7Z9kk3KXf/FvtP97PTjcfpu+rpzJ7i8ri2vRNy/9pcboU3K6OJe/ZIkSdPsQjNjta+blsFUM9Ly+lC5yrnUCwdPTJvuX6bCWj3l5dY9ffTI2l92hP7A/l6SJE2p65PsX/tgh8V5RQMbjDS23l+mkWrBg8sAdNP6rt2TBB9N8oYydsDaHlvxEbGdyjgFO2Rc3trAti9JkobXs2sf5LB4myY5o4GNRhpjX6g4Rcp9pvjb/1wZLHDX1H8P/pFl4NPuaY2LFhjL4ZgyReoY7Fqu0Nfe7iVJ0nB6W+0DHJbu1kkuaGDjkcbWVRu4C95dnHvMFEZS3TPJP07pcfCvlen4ag9y+rjyisY16/mcP0vyrCRbZHw+2MB2L0mShtHXKt7MYoW60b7dGZJm29fX83u8Z5L/mPe/6+aLX6nblMfwb5jSdzmxnHzX0g06c1w5ud/Q5/zkjO/4d/+uJyd5QZJXlgH5fj/JfjO8ALFTabfyxEPt7V6SJPW/n5eB5emxwxrYkKQx9a4FfocHJfnlOv+7bmC+py/zd33LJH9ZnjYY4nyvd0hycpLrFvE5Ty1PVkzbqjLGwZkbedKiW88fLxd4uhP0SdkyyUvKBabFLBdJkqSltDrJIyZ47EJFJzWwQUlj6dh1fn8PLVPmLfS/XVPuIG+xhOn8usH2rpzxd5hvmyS/UR7Jf1qShyTZOZO7s37iEk5wP1CmxJu2bsyBry5jOXbf471ldpbNVvDv32OZ/35JkqTF9n8neOxEZd0jvJ9tYKOSxtCfzvvt7V4epdrYP/OdJIeWk+uFHoN/crmrPO3p/Lo+tcAYBluXp4k+vZ6T89Vl8MHlTgW4U3nU/+olfM5zkmyb6XpAkn+d0HL9aZLXJNl3iZ+he3rksga2a0mSNNw+VHEmJ6Y4KOD5DWxc0tB7U/nNbZ/kW0v8Z7sxO85K8rEyjd95FT7/U+btN7op9V6+yIsYa/tSkkctcr+0XZKjkly+xM94Y3nfflp2K69yTGNQxbkyFsSflWkjF3p9ofvvDkjyiQa2Z0mSNOy+k+QWUzyuoqJ7L/EOm6Tl3ent3tE/rYHPspxeVx6rP2wRg+9tbNrAR6/n9YbuUf8XJrl4BZ9xGrrH9F805bEV1u2q8nj/B8rrAp+dwSsekiRJc+Upw7tO6biKRhyc5KYGNjZpyP2ogc+wks6d8B+WD5VB/U4tTzis5FWGiyc8uN5a+5UB9move0mSpFl0Q5IDp3BMRYOObGCDk6Tl1D2ZMEnduAuvKq8V1P5ukiRJfT2monFvbmCjk6Sl9OUJj/p/4ISfdpAkSepDfzXB4yl6NDPApxrY+CRpMXWvLt1vQvu/rZK8doqD/EmSJLXaB2c0jTIN2mEZo5RLUo3+bkL7vfuWUfhrfx9JkqRZ94X1TDvNiNzO9ICSGu/CJLda4b6u++dPMQiqJEkaad9NssuEziHpub3LSN21N0pJWrducL7fWMH+rZvX9s/t4yRJ0sinqd5jguePDMABSa5tYOOUpPm9cJn7tF2THOvEX5IkjbyrynTH8L88YYXzc0vSJPt0klVL2IdtluQRSd5f5rat/fklSZJqdn05NoL16uaDNDK2pBY6ZhH7rF3Kxcu3Jbm0gc8sSZLUQt2N3SfN4PyRATiygQ1Wkk6ft1/aury79ttJnp/kLUnOccFSkiTpf9UdHx1e8XySHnpFAxuuJHWzlFzTwOeQJEnqSy+qfTJJP72mgY1XkiRJkrS4jqt9Ekl/bZLk7xvYiCVJkiRJG+71SxxAGRa8CPCOBjZmSZIkSdLC/Z2TfyZl0yTvamCjliRJkiTdvFPLjVuY6EWAf2hg45YkSZIk/Xf/WM7VYOI2T/LhBjZySZIkSRp773byz7R1G9g7G9jYJUmSJGmsda9ob1b75JDxXAR4WwMbvSRJkiSNrVO880+NiwCnNrDxS5IkSdJYepOTf2rZpFx9qv0jkCRJkqSh92pT/VFbtwH+VQM/BkmSJEkaasfXPvGD+V7cwI9CkiRJkobUmiQvqH2yBwt5ZpKbGviRSJIkSVLfW53kD2qf5MGGPCXJDQ38WCRJkiSpr12X5PG1T+5gMR6e5IoGfjSSJEmS1Ld+nuRBtU/qYCn2TnJeAz8eSZIkSepL5ya5S+2TOViOXZN8pYEfkSRJkiS13heS3Kr2SRysxLZJPtLAj0mSJEmSWu19SbauffIGk7Bpktc18KOSJEmSpNY6MckmtU/aYNKOKFNZ1P6BSZIkSVLtbkzyrNonaTBNhyS5poEfmyRJkiTV6qokB9U+OYNZuG+SnzTwo5MkSZKkWXdBkn1qn5TBLN0pydca+PFJkiRJ0qz69zJbGozOVklOaeBHKEmSJEnT7uQkW9Q+CYPaDk3yywZ+kJIkSZI06a5N8oe1T7qgJfsl+WEDP05JkiRJmlQ/SnKf2idb0KJdkpzewI9UkiRJklbax5PsVPskC1q2aZLjk6xp4AcrSZIkSUttTTmn2aT2yRX0xWOT/KKBH68kSZIkLbYrkhxS+2QK+mivJP/RwI9YkiRJkjbW15PsUfskCvps6yQnNvBjliRJkqT19fYk29Q+eYKheFySnzfww5YkSZKktXWvLT+59skSDNFtknyigR+5JEmSJH0hye61T5JgyLqRNI9Mcl0DP3hJkiRJ4+vGJEeXGcyAGdg7yTcb+PFLkiRJGk/fT7J/7ZMhGKOtygCBaxrYEUiSJEkabt05x8lJtq19EgRj91tJLmpgpyBJkiRpeP00yaNrn/QANx8g8AMN7BwkSZIkDWt6v51rn+wAC3tMkgsb2FFIkiRJ6m/dE8aH1D65ATZux/J+Tu2dhiRJkqT+vevvrj/09GmACxrYiUiSJElqv3OTHFj7JAZYvm2SHJ9kdQM7FEmSJEntdUOZXcwI/zAQ+yT5UgM7F0mSJEnt9Pkk96h9sgJM3iZJDk9yRQM7GkmSJEn1ujzJEeUcARiw3crAHmsa2PFIkiRJmv0gf7eufVICzNYBSb7RwE5IkiRJ0vQ7K8kDap+EAPV0j/wcmuSSBnZIkiRJkibfzz3uD8y3S5LXlxFAa++gJEmSJK2865KckGSH2icbQJv2SvLeBnZWkiRJkpbfx5LsUfvkAuiH7t2gMxvYcUmSJElafN3U3w+qfTIB9E/3jtDTkvyggR2ZJEmSpPX3n0memGRV7ZMIoN82T3J4kgsb2LFJkiRJ+p/OL8fqm9U+aQCGZZskL05yWQM7OkmSJGnMXVKOzbeqfZIADNuOSf4iyeUN7PgkSZKksZ34vyTJdrVPCoBx2d4TAZIkSdLMTvyPNaUfUNt25ULApQ3sGCVJkqQhnvjfovZBP8C6FwKOKAOR1N5RSpIkSX3uvHJs3Y3DBdCsLZIcmuScBnackiRJUp/6VjmWNqo/0CubJHlckjMb2JFKkiRJLfeZJAclWVX7IB5gpfZL8vYkNzSwc5UkSZJa6Pok701yv9oH6wDTcNsyiMklDexwJUmSpBpdnOT4JL9oQ4vnAAAGxklEQVRS++AcYBa6wUyekeQrDeyAJUmSpFl0Znm/f6vaB+MANV8PODnJVQ3slCVJkqRJdmU51t2n9kE3QEt2SPKcJN9sYEctSZIkraTuSdc/TrJ97YNsgNbtXd6LuriBnbckSZK0mC4rd/vvXftgGqCPtkzypCSfTLK6gZ26JEmSNL9ulquPJjkkyea1D54BhuKWSQ5P8vkkaxrY2UuSJGm8nZXkiCS3qX2QDDB0eyT5syRnN7DzlyRJ0jj6epI/TXL72gfDAGO+GHBEeTKg9h8FSZIkDavuhtOxSe5W+6AXgJvbM8mLy6irXhOQJEnSUrspyZlJXpjkTrUPbgFYnFsnOTTJe8v8q7X/mEiSJKnNrknysTLe1O1qH8QCsDJbJzkoyUlJftDAHxlJkiTV7btJXpvk4Um2qH2wCsB0xw04vDwdcFkDf4AkSZI03a6cd5ffo/0AI7VZkgcmOSrJ6UmubuAPlCRJklZ+wv+JJC9Jct8km9Q+6ASgPZsneUAZTPC0JFc08AdMkiRJG+7SJB9J8oJywr9p7YNKAPr7ykA3oOCJSc4qo8PW/iMnSZI01laX6fneXqaD3s8dfgCm5RZJfrM8JfCeJN9xUUCSJGmqJ/vvSnJkkock2a72wSAA47ZdGUvg2UnenOTzBhiUJElaUj9P8m9J3pjkmUnul2Sb2gd5ALBYuyV5WJLnJnlTkjOS/MgTA5IkacR39H9QBl8+qdw8OTDJbWoftAHAtGyZ5G5JHpPk+WV8gQ+XMQZ+1sAfZ0mSpOX2kyRfTvLBJK8tN0IOSnKXJFvUPggDgNZslWSvJA9N8tQkz0vyyiSnltkJuj+qP0zyiwb+yEuSpOF3eblz/8UkH0vy1iSvKIPw/V6SByfZs9zkAACmZFWSncpsBfuWx+gOTvI7SQ5L8qwyYOHRSY4v/VWSkyVJ0ug6Yd7xwFHlGOGZ5ZihO3Z4bLkBce8ku5djDAAAAAAAAAAAAAAAAAAAAAAAAAAAAAAAAAAAAAAAAAAAAAAAAAAAAAAAAAAAAAAAAAAAAAAAAAAAAAAAAAAAAAAAAAAAAAAAAAAAAAAAAAAAAAAAAAAAAAAAAAAAAAAAAAAAAAAAAAAAAAAAAAAAAAAAAAAAAAAAAAAAAAAAAAAAAAAAAAAAAAAAAAAAAAAAAAAAAAAAAAAAAAAAAAAAAAAAAAAAAAAAAAAAAAAAAAAAAAAAAAAAAAAAAAAAAAAAAAAAAAAAAAAAAAAAAAAAAAAAAAAAAAAAAAAAAAAAAAAAAAAAAAAAAAAAAAAAAAAAAAAAAAAAAAAAAAAAAAAAAAAAAAAAAAAAAAAAAAAAAAAAAAAAAAAAAAAAAAAAAAAAAAAAAAAAAAAAAAAAAAAAAAAAAAAAAAAAAAAAAAAAAAAAAAAAAAAAAAAAAAAAAAAAAAAAAAAAAAAAAAAAAAAAAAAAAAAAAAAAAAAAAAAAAAAAAAAAAAAAAAAAAAAAAAAAAAAAAAAAAAAAAAAAAAAAAAAAAAAAAAAAAAAAAAAAAAAAAAAAAAAAAAAAAAAAAAAAAAAAAAAAAAAAAAAAAAAAAAAAAAAAAAAAAAAAAAAAAAAAAAAAAAAAAAAAAAAAAAAAAAAAAAAAAAAAAAAAAAAAAAAAAAAAAAAAAAAAAAAAAAAAAAAAAAAAAAAAAAAAAAAAAAAAAAAAAAAAAAAAAAAAAAAAAAAAAAAAAAAAAAAAAAAAAAAAAAAAAAAAAAAAAAAAAAAAAAAAAAAAAAAAAAAAAAAAAAAAAAAAAAAAAAAAAAAAAAAAAAAAAAAAAAAAAAAAAAAAAAAAAAAAAAAAAAAAAAAAAAAAAAAAAAAAAAAAAAAAAAAAAAAAAAAAAAAAAAAAAAAAAAAAAAAAAAAAAAAAAAAAAAAAAAAAAAAAAAAAAAAAAAAAAAAAAAAAAAAAAAAAAAAAAAAAAAAAAAAAAAAAAAAAAAAAAAAAAAAAAAAAAAAAAAAAAAAAAAAAAAAAAAAAAAAAAAAAAAAAAAAAAAAAAAAAAAAAAAAAAAAAAAAAAAAAAAAAAAAAAAAAAAAAAAAAAAAAAAAAAAAAAAAAAAAAAAAAAAAAAAAAAAAAAAAAAAAAAAAAAAAAAAAAAAAAAAAAAAAAAAAAAAAAAAAAAAAAAAAAAAAAAAAAAAAAAAAAAAAAAAAAAAAAAAAAAAAAAAAAAAAAAAAAAAAAAAAAAAAAAAAAAAAAAAAAAAAAAAAAAAAAAAAAAAAAAAAAAAAAAAAAAAAAAAAAAAAAAAAAAAAAAAAAAAAAAAAAAAAAAAAAAAAAAAAAAAAAAAAAUs//AyoM+EAqmBAXAAAAAElFTkSuQmCC;clipPath=inset(23.33% 0% 23% 0%);" vertex="1" parent="1">
          <mxGeometry x="370" y="177" width="24.9" height="13.37" as="geometry" />
        </mxCell>
        <mxCell id="yCn2jR1rTROU2GFjiqKD-5" value="" style="shape=image;verticalLabelPosition=bottom;labelBackgroundColor=default;verticalAlign=top;aspect=fixed;imageAspect=0;image=data:image/jpeg,/9j/4AAQSkZJRgABAQAAAQABAAD/2wCEAAkGBxAQDxUQEBAWFhUVFRUaFRUYEBUVFxYVFRUWFxcVFhgYHSggGBolGxUVIjEiJSkrLi8uFx8zODMsNyktLi0BCgoKDg0OGhAQGy0mICYtKy0vLS8tLS0tMi0tLS0tLS8vLS0tLS0vLS0tLS0tLS0tLS0tLS0tLS0tLS0tLS0tLf/AABEIAOEA4QMBEQACEQEDEQH/xAAcAAABBQEBAQAAAAAAAAAAAAAAAgMEBQYHAQj/xABGEAABAwEEBgYHBQUHBQEAAAABAAIDEQQFEjEGIUFRYXETIoGRobEHMkJScsHRFDNigpIjU6LC8ENEY5Oys+EWJXPi8ST/xAAaAQEAAgMBAAAAAAAAAAAAAAAAAQUCAwQG/8QANBEAAgIBAQUGBAYDAAMAAAAAAAECAxEEBRIhMUEyUWFxkbETIoHwFFKhwdHhMzRCI0Px/9oADAMBAAIRAxEAPwDuKAEAIAQAgBACAEAIAQAgBARLRednj+8njZ8UrW+ZWyNVkuzFv6GuVsI9qSX1Ip0lsI/vkP8AnMPzWz8Lf+R+jMPxVP516oG6S2E/3yH/ADmDzKfhL/yP0Y/FU/nXqiVZ7zs8n3c8b/hla7yK1yqsj2otfQzjbCXZaf1Ja1mwEAIAQAgBACAEAIAQAgBACAEAIAQAgBACAEAIBMkjWiriAN5NFKTfIhtLmV1ovpg1MBd4D6rbGlvmapXJcjA6WaXXhHMY2PbGwirSyMVLTvLq6wd1FcaTRaecN5rL8/4KjWa2+E91cEY613jaJvvZ5H12Okc4dxNArKFVcOzFL6FZO6yfak39SLhWw1hhQYDCgwGFASrJeNoh+6nkZwbI5o7gaFa51Vz7UU/obIXWQ7MmvqaC7/SBb4vXc2UbnsANODmU8arjs2ZRLkseX9nZXtO+PPj9+Brbp9I9lkoJ2Ohdv9dneBUd3aq+7ZVseMHn9GWNO1KpcJ8P1Rr7Lao5WB8T2vacnNcHDvCrZwlB4ksMsYzjJZi8oeWJkCAEAIAQAgBACAEAIAQAgBACAEAiaVrGl73BrQKlxIAA3knJSouTwiG1FZZgdIfSOxtY7E3Gf3rgQ0fC3N3M0HNW+n2U3xtePAqdRtRR+WpZ8ehm7i0jmfaf/wBMrniWgq46mu9nCMmg1pQAZhdmo0kFX/41jBxafVzlZ/5HnJtFVFoVWkd1/aISGjrs1s4729vnRdOlu+FPjyfM59TT8WHDmuRz3CrspMBhQHuFBgMKDB5hQBhQYPKKRgSQhGCRd9vms7+kgkcx29pz4OGThwKwsqhYsTWTOu2dTzB4Og6O+kdrqR21uE5dK0dX87c28xXkFTajZTXzVP6Fzp9qJ/LaseJv4JmvaHscHNcKhwIII3gjNVEouLw+ZbqSksoWoJBACAEAIAQAgBACAEAIAQFTpDpBBYY8crquPqRj1nnhuG8nV4BdGn0075Yj9Wc+o1MKI5l6HItI9JbRbnftDhjB6sTScI3E+87ieyi9HptJXQvl59553U6uy98eC7inAXScooNQnB0LRq8/tENHHrsoHcdzu3zBVJqqfhz4cmXelu+JDjzXMt6LlOkxult04H9OwdV56w91528j581a6K/eW4+a9v6KvWUbr31yfPz/ALM9Rdxw4DChIYUAUQjB5RBg8LVJAqKzveaMY53wtLvJQ5KPNkqLlyWSdDo9anf2VOLnAeFa+C0vVVLqbVpbX0JceiMx9aRg5YnHyC1vWw6JmxaGfVo0GjVitFhdVlpqwnrRGM4TvI63VdxHbXJcWpsrvXGPHvz/AEdumhZQ+EuHdj+zoNhtrJm1ade0bQqedbg+JcQsU1wJKwMwQAgBACAEAIAQAgBAUOlmk0dgiqaOlcP2cdc/xO3NHjly69JpJXy8OrOTV6uNEcvn0Rxq8bfLaZXTTPLnu27hsAGwDcvTV1xrjuxXA8zbbK2W9J8RgBZmAsBQZCgEJJ10251nlEjcsnD3mnMf1tC03VKyG6zbTY65byOiwSte0PaatcAQeBVFKLi2mXkWpLKCeFr2FjxVrhQjgkZOLyiZRUlhnPr1u51nlLDrGbXe83671eU3K2O8ikuqdct1kTCtprwGFBglWS7Jpvu4yRvyb3nUtc7YQ7TM4VTn2UXNl0TOcsnYwfzH6Llnrfyr1OmOi/M/Qt7NcdmjyiBO93W89QXNLUWS6nTHT1x6E8NAFAKBaTcCA8ohB4QpIFQyuY4OaaEKJRUlhkpuLyjUXZeDZm7nDMfMcFwW1OD8DvqtU14k1ajaCAEAIAQAgBACAiXnb2wR4jrOTRvP0WyutzeEa7LFBZZx7TV7pLQ2V5qXN19hOocNYXo9ClGtxXQ85rm5TUmUIC7TiHAFBkKAUEiwFBIoBCcGh0WvTo3dC89Rx6p91x2cj581w6yjeW/Hmju0l269x8mbGiqizIV7Xc20R4DqI1tduP03rdTc6pZRquqVkcMytl0ene4hzcABoS7+UbfJWctVWllcSujpZt4fAv7DcMEWstxu3u19zcguOzUzl4HXDTQj4lpRc5vPKIAogPEB5RSQeUQDM1pjZ68jW83geayjCT5IwlOMebIcl9WUZzN7Ku8ltWntf/JreoqX/SG49KbNG4ObKaj/AA3/AEUvR2SWGv1RitZXF5T/AEZt7gvyG2xdJE6uE0e2hBaeR2HYfoVVajTzpliRa6fUQujvRLRaDeCAEAIAQAgEyPDQXONABUncApSy8IhvCyzD3pbjPIXHIamjcPqVZ1VqEcFZbY5yyZbS2KrGP3OI/UK/yqw0cvmaK/WR+VMzgC7zhFgKCRYCgyFgISKAUE4FBqgnBtdFre6dvRuqXM9rYRxPvefeqnWVKt7y5MtdJa7FuvmjTxWYNz1lVzm2WCgkFqgxCozHjwUwnukThvFaQuk5gopB5RAM2m1Rxisjw3mdZ5DMrKMJS7KMJTjHmyntWk0TdUbHP4nqjx1+C6oaOT7Twc89XFdlZKi06R2h3qlrBwbU97qrojpK1z4nNLVWPlwKy0WyV/ryPPAuNO7Jb41wjySNEpzlzbIhathqwIIUkDZCkgs9Gr7fYbQ2ZtS3KRnvMOY5jMcRzXPqdPG+vdfPob9LqHRZvLl1O5WW0MljbJG7E14BaRtBFQvKyi4ycXzR6qMlJKS5MdWJkCAEAIAQGR0sv0CdtiadZaXScKULG9usnk3erDS6d7jtfkv3K/Vahb6qXmyoC3mghX5Bjs7xtAxD8uvyqt2nlu2I06iO9WzGgK1KscAUGQsBQSLAQywLAUEl1c9xOlo+SrWbB7TuW4cf/q5btSocI8zqp07lxlyNZZ4mxgNYA0DIBVsm5PMiwjFRWEWtnmxDjt+q5Jx3WdUJbyHlgZEe1WfFrGfmttc8cGa5wzxRQ2+9IodTnVd7o1nt3dq7q6Zz5cjjndGHMoLbf8z9TOoOGt3f9F2w0sI8+Jxz1M3y4FM8kmpJJOZJqe9dK4cjnfEQQpMRBCkjAkhDEbIUkCCFJiNuCkgbcFJidC9Fl+0JsUh1Groeeb2ebhycqbaun4fGj5P9n+3oXOytT/6pfT90dJVIXYIAQAgI94WtsET5n+qxpceQFaDis64OclFc2YTmoRcn0OH2e8ny24WiQ9Z8lTwx9Wg4AGnIL1MqlGncj0R5aNznfvy6s2gVUWp6WgihyKAws8Bje5h9kkd2RVzGW9FMqJR3W0ACkCwFBkhwBQSaa5LipSSYa/ZYdnF3HguC/U5+WHqd9Gn/AOpeho6LhOw9ogFMcQahQ1lYZKeCcy0tIrXXu2rncGmdCmmhmW0E5agslBIxcmzPX7cvSVkjHX2j3v8A2813abU7nyy5exxajT73zR5mUc2itMldgQQhAkhSQIIUkCCFJixshDEbcFJiIcFJA24KTEVZbS+GRssZo5jg5p4g17lE4KcXGXJkwm4SUo80d7um3ttMEc7MntBpuO1p4g1HYvI21uubg+h66qxWQU11Ja1mwEAIDC+le88FnZZmnXK6rvgjoadri39JVrsqresdj6e7/oqtq27taguv7HLm8FflAjodkmxxtf7zQe8KknHdk0XcJb0UyXZ7O+R2FjSTw+e5a5SUVlm2MXJ4Q9JoGJpOklmLagVaxoJqNuI6sqbNiiO0nCO7FZ8xLZqnLek8eROi0EsIGtsjuJlI/wBNFqe0r33ehuWzqF0fqIn0Dsjh1HSMPB4cP4gVlHady54ZEtnVPllffiRLJoZ0DzJi6Wnq9XCRxpU1K2T2h8RbuMGuGg+G85ySqLAzPUJPaKAU9530GVZFRztrs2jlvPguqrTOXGXI57L0uESjhtkjZOlDiXbSddRuPBdkqoyju44HLGySlvdTXXfbmzMxNz9pu0H6cVU21Ot4ZZ12KayiUtZmU99XMJavj1P27nc+PFden1Lh8suXsc1+n3+K5mSkjIJBFCMwRrBVommsorWscGNkKTEQ4KSBshSYiHBSYsbcFJA24KTFjbgpMRtwUmJ0r0TXnijlsrjrYcbPhdqcBwDqH86o9rVYlGxdeD+/vkXuybsxdb6cToCpy3BACA4x6RLd014yCuqINjHYKu/ic4di9Ns6vcoXjxPM7Ss372u7gZ1q7jiRutBLO60xmPIRu1u3NdrHbXEqjaElXLe7y30EXZHd7jo1lszIm4WCg8Sd5O0qklNyeWXUYKKwh5YmQIAQAgIttsTZBUanb9/ArbXY4+RrnWpeZQyjBXFqpnXZRdi+bkcj4czNXrfBkqyPUzaci76BWFOnUeMuZxW3OXCPIqg1dJoPcKE4HrLaHROD2Gh8CNx4LCcIzWGZQk4PKNbd9ubM2o1Ees3aPqOKqranW8Msq7FNcCUtRsK29rpbOKjU8ZO38HcF0Uah1vHQ57qFZx6mQtVmdG4seKEf1UbwrWE1NZiVk4OLwyO4LMwG3BSYjbgpMWNuCkxY04KSBtyyMWNuUmLLvQW3dBeEJrqeejdyk1D+LCexcmvr36JeHH0/o69BZuXx8eHqduXlj1AIDxzgASchmi4g+ebXaDLK+U5ve5x5ucXfNeyhHcio9yweNslvzcu9nsEbnODWirnEBo3kmgHeUk0lliKbeEdx0eulljs7IW0qNb3e88+s75DgAvKai93WOb+nker09CprUF9fMsloN4IAQAgBACAzGnVic6EStJowjG3e06g48jTv4Kx2fYlPdfXkcOurbhvLpzMKArkqxYCgnAqiE4CiDAqGV0bg5hoR/VDvCxlFSWGTFuLyjUXZeTZhTJ4zbv4t4Ksuodb8DvqtU/MnLQbiLeFhZM3C8cnDMcvotlVsq3lGqyuM1hmOvO7ZIHUcKtOThkfoeCtqbo2Lhz7istplW+JEs9lklfgjYXOOwCvbwHFbZzjBZk8I1RhKbxFZZorLoFaXiskkcfDW8jnTV3ErgntOpdlN/odkdm2PtNL9Rc/o8mp1LRGTuLHN8RVYx2rDrF/foTLZc8cJL0x/Jmb4uO02U/toyBseOsw/mGXI0K76dTXd2H9OpwXaeyrtr69Cqcug52NOUmIlry0hzTQtIIO4jWCpaTWGE2nlH0LZZxJG2QZPa1w5OAI8142Ud2TT6Hsoy3kmh1YklbpJMWWK0PGYhkpzwGnit2mjvXQXivc06iW7VJ+DOCtXrjyBqPR7ZBJb2E5Rtc/tFGt8XA9i4NpWblDx14Fhs2vevWemX+37nXMa80elDGgDGgDGgDGgDGgDEgG7TGJGOjdk5paeRFFlCTjJSXQxlFSTT6nKywgkHMGh5henzniihxjgKQkEAIAQHgcWkEGhGRGxQ0msMjlxRobqvkPoyXU7Y7IO+hVffpnH5o8jsq1ClwlzLdch0nn2YS9QgEHMEVFE39z5kNzf4Ms7su+KzMwRNoNpzLjxO1c9t07XmbN9VMKliKJeNajYGNAJla17S17Q5pFC0gEEHYQc1KbTyiGlJYfI5fppo2LK4Swg9C80pn0bvdr7p2cqbq+h0Gs+Mt2XaX6nn9do/gvej2X+hlHKxK5jTlJizuWhk2O7rOd0TW/o6n8q8prY7t814+/E9Xo5b1EH4F0uY6Si05fS7bQfwU73AfNdehWdRDzOXWvFE/I4i1epPKm29F9PtE2/oh3YxX5Kp2t/jj5/sW+yf8kvI6NjVCXoY0AY0AY0AY0AY0AY0AY0Bze8Pv5f/I//AFlelp/xx8l7FFZ25eb9xhbDEEAIAQHhQhjblJiy1uu/CyjJalux2Zb9R4rku0qlxhzOirUuPCXI2V2vaWY2kEOyI3Kmvypbr6FrThxyiXjWk2hjQBjQBjQEW9LI20QPhdk9pHI5td2EA9i2U2uqamuhrurVsHB9TikjSCQRQjURuIzXr00+KPItNcGNOUmLOy+jd1bsh4GX/defmvM7S/2JfT2R6bZ3+tH6+7NMuE7ih06bW7bR8APc5p+S69C8aiHmcutWaJ+RxJq9SeVNP6P7UI7aGn+0Y5vbqeP9J71XbThvUZ7mn+37ljsye7fjvTX7nTsS84ejDGgDGgDGgDGgDGgDGgEyTBoLjkASeQ1lSk5PCIbwss5055cS45kkntNV6dLCwUOcvJ4pAIAQAgPChDG3KTFjblJize6OOH2SKm49+I1XndZ/nl99C80v+GJZY1zHQeY0B7jQHmNAe40Bxq96faJqZdLJTljK9dR/ij5L2PI3/wCWXm/cguW40s7J6Nh/2yLiZf8AdevM7S/2JfT2PTbO/wBeP19zTrhO4q9KIsdhtDQKkwyUHEMJHiFv0ssXQfijRqVmma8GcHavWnkUSLLO6N7ZGGjmuDhzBqFhOKlFxfJmyEnCSkuaOv3beDZ4mysycMtx2tPEGoXkrqnVNwl0PW02xtgpx6knEtZsDEgPMSAMSAMaAMaAptJ7fgi6IHrPz4N29+Xeu/QU70998l7nHrbd2G6ub9jKNKuiqQtDIEAIAQCXFDFjbipIG3FSYmq0RtlYjEc2Go+F2vzr3hU20qsTU+/3Ra6CzMHDuL7Gq07wxoAxoAxoBE8+Fpdu89iyhHekkYzluxbObXpcMjcT4zjGske3rz+Jemp1UXiMuHseZu00lmUePuUD12HGztugsOC7bON7C79bnP8A5l5bXS3tRN+PtwPVaGO7p4Lw9+JfLkOoTKwOaWnIgg8iKKU8PJDWVg+eJoTG90bs2OLTzaaHyXsoyUkpLqeNlHdk4voetQGj0PvV8UwiAxMkOtu409cdg18BwVfr9NG2G91X3gsNBqZVT3ej+8nQWyV1hedaaeGeiTTWUe41BIYkAYkAYkAiSYNHyWcK3N8DCc1FcTFXp0nSky5nI7KbKcF6GhQUEocikuc3NuRHBW41iwVBOT2qE5CqA8JQjIglSQIJUkDbihixdjtjoZBIzMbNhG0FYW1Rtg4SMq7ZVyUom2u+8Y524mHm3a3mPmvO30TpliXqXtN8LY5iSsa0m4MaATLO1jS5zgAMyTQBTGLk8JcSJSUVl8ismtzZgDG4FmwjaVYV0OrtcyvtvVvZ5EcrcaSDeN2xTCr26/eGp3/Pat1V04cjTbTCfNHSbts3QwRxD2I2N/S0D5Klsnvzcu9tl1XDcgo9yJKwMwQHE9PbD0N4yilBIRI3jjFXH9YevUaCzfoj4cPT+jy+0K9y+Xjx+/qUTV2HIjUaF2WrnzH2RhbzOs+FO9cGtnwUfqd+ihluX0NexxGSq5wjLmWkJuPIdbMuaWna5HTG9PmRBfVm/fN76eal6O9f8shaun8yFR3vA5wa2UEnICuvtyT8JcllxH4qlvCkOutO5THTfmIlqPyjJNc10pJLCNDbfFjdogbI3C4VHiDvCzjNxeUYSipLDM/brC6I727HfI7iu+u1T8zjnW4eRGBW01nuJCchiQZPC5AJJUkCCUMRtxUkCCVJieRzOY7E1xBG0GhUShGSxJZQUnF5i8Ms4NJ526nBr+JFD4avBcU9mUy5ZR2Q2jbHnhiptLZqdWNgO84nfMLGOyq88ZMmW1LMcIopLfeMsxrK8u3DJo5Aau1d9NFdS+RY9zguvstfzvPsMWe1vidijcQdu48xtWydcZrEkaozlB5iy+sOkTHdWUYD7w1tPzC4rNJJcY8Tsr1cXwnw9jQ3ZGJZY2gghzhlrBaOsdfIFcNj3Yts7q1vSSRv1VFqCAEBz/0s3bijitTR6hLH/C7W0ngCCPzq42TbiUq314/f30Kja1WYqxdOBzRpV4UR0XR+y9FZmN2kYjzdr8BQdipdRPesbLrTw3K0ixC0m8hX5a+igc4HWeq3m7b2Cp7Ftor35pGq+e5BswzSrcqkOtcoMkaW6L3D6MkNHbDsdz4+ar79Pu/NHkd9N+9wlzLhch1HqEgQCKEVB2Jy5Ap7ddHtRfp+h+S7K9T0n6nLZR1iVLqg0IoRsXVzOYk2C75pzSGMupmcmjm46gtdl0K1mbwbK6p2dlF5FoVaCOtJG3hVzvkuN7SrXJM6loLHzaI9r0PtbBVuCTg11D3OA81nDaFMueV9+BhPQ2rlhmemY5ji17S1wzBBBHMFd0Wmso45Jp4YySsjAQ4qSBBKkxG3FSQxtxUmI24qTFjbipMRtxUmLOgeiWwuLpbQScLaMaK6sRo5xpvAwj8xVNtaxJRh15lzsmt/NN8uR0pUhdggBAQ74u9tps8kD8ntIruObXdhAPYtlNrqmproa7q1ZBwfU4ZZbvd9qFneKOEmF43YT1vAFerlavh767snlI1P4vw33nSAqUuxSgkyml9rrI2IZNFT8Tsu4D+JWOjhiLl3lfrJ5ko9xRNK6zkHAUMkLBUEl7dd9UoyU6tj9o+LfzXFdps8Yeh2VajHCXqX7XAioNQciuJrB2pilABCRyC6GWl37Qahm4aj8IKxlqZUr5SY0RtfE01njZG0MY0NaMgBQBV8pOTzJ8TvjFRWEOY1iSGNAVl+3PFa2UdqeB1H01g7jvbwXRp9TKmWVy6o0X6eN0cPn0Zy62QPikdG8Uc00I+nDb2r0kJqcVKPJnn5xcJOMuaI5KzMBBKGLGyVJiIcVJA24qTEbcVJiIoSQAKk6gBrJJyAU8uZGMvCO7aMXV9kskcHtAVed73a3a9us0HABeT1V3xrXP08j1ump+FUofeS1XObwQAgBAY7SK4A22ttrRqLC14/xNQa7tbUdg3qy0+pbp+C+/h5f/St1OmStVq+2MBZmAqqgk5zbrT0sr5PecSOWTfABXdcNyKiUs578nLvGwVkQOAqCRYKGWRQKgkn3feb4dQ1t2tOXZuK020xn5m6u6UPI0livCOUdU69rTmPqq+yqUOZ312xnyJdVqNhoLAzDG0bxU8yq+2W9NnfXHEUSMa1mYY0AY0AY0BiPSFZQHRzj2gWO5t1t8C7uCudl2ZUoPpxKjadeHGf0/gxxKtiqEEqTEQSpIGyVJiNuKkgQSpMTX+jS4+ntP2l4/ZwnVudLm0fl9bnhVbtPUfDr+Gub9v75epZ7M0+/P4j5L3/AKOtrzp6EEAIAQAgG54Q9pY7IjWpjJxeURKKksMyFrs7onljtmR3jYVZQkpLKK2cXF4ZV39aejs0jtpbhHN3V+dexdGnjvWJGi+e7W2YBpVwU6FgqCRYKgyFgqCRYKE5FBygyyKa8g1BoRkcioaySnguLHfzm6pRiG8et9CuWzSp8Y8DphqWuEuJ0KCYOY1wyLQRyIqF52Sak0z0EXlJoXjWJIY0AY0AY0BVaQwMlja17ajFUayNhFdXNdejnKE249xyauEZQSl3mXm0fiPquc3tBHiK+KtVq5rngrJaWD5ESTRs+zKO1lPIrYtYuqNT0j6MjSaOzbHMP5nD5LYtXDuZrekn0wMu0ftH4P1/8LL8XX4mP4WzwE/9PWj8H6/+E/F1+JH4SzwHbLonaJHhgcyrjQa3HtyyWMtdXFZwzKOhsk8ZR1+5LrjslnZBHk0aztc463OPElecvulbNzl1PR01RqgoR6E5ajaCAEAIAQAgIV6WATM1esPVPyPBbarNx+Bqtr314nMNOZS1jIiKEuJI+EU1/q8Fe6FZbkUWubSUTJAqyK4WCoJFgqCRQKgkWChkKBUDJ7iQnJ7VCcm+0SvESWcMJ60XVI/D7J7tXYvPbQpddu90fH69S+0FynVu9Vw+nQu8a4DuDGgDGgDGgKu8ZsTqDJvntXdp4YjnvOHUTzLHcRKroNB4ShAkqQeEoQJKEGv0fuvoW43jruGXujdz3rgvt33hciwoq3Fl8y3XOdAIAQAgBACAEAIDLab6KC2s6SPVMwdWpo14907juPfw79DrPgPdl2WcGt0avjldpHIJ4XxvMcjS1zTRzSKEHivSRkpLMeR5uUXB7slxPAVIFAqCRYKgkUChIoOUE5PQUGT3EhOSTd9vfBIJIzrGY2OG0HgtV1MbYbsjZTdKqW9E3V137DaAADhftY46+z3hy8F53UaOyl8Vld/3yPQafWV3cnh933zLPEuU6jx0gAqTQDMk0ClLLwg3jizNX1pW1vUs5DnbX+yPh948cuatdLs2Uvmt4Lu6lVqtoxj8tXF9/T+ymj0lkHrRtPIlv1Vg9HHoyvWsl1Q+3SdntROHJwPnRYPRS6Mz/GR6odbpJAcw8c2j5FYvR2eBK1lfiK/6hs/vH9BUfhbO4y/FV9/6Hg0gs5IALiSaABhJJOQA2lPwtnX3C1Nb4L2Nzo/cxbSaZtHZtYfZ4u/Fw2c8qq+/Pyx9S0oox80ufcaFch1ggBACAEAIAQAgBACAz2leikNubi9SYDqyAZ/hePab4jZtB7NJrJ0PHNd38HHqtHC9dz7zkN73VPZJOinZhOw5tcN7TtH9Gi9HTdC6O9BnnLqJ0y3ZoiAraahQKgkUHITk9DkJyKqoGQxITk9xIMhVASYrynaKNmkA3dI6nmtMtPVLi4r0RtjqLY8pP1Gp7VJJ95I53xPLvNZwrhDspLyRhOyc+02/NjBcszA8LlJAklCBJKkgdsNjlnkEULC95yaPM7AOJ1LCyyNcd6TwjOuuVkt2CyzrGh+hcdjpNNR8+w+zHwZXM/i7qa6+f1mvld8seEffz/g9Do9BGn5pcZe3ka1VxYAgBACAEAIAQAgBACAEAICLeV3Q2mMxTxh7TsOw7wcweIWyu2dct6DwzXZVCyO7NZRzPSL0eTQ1kshMrPcP3jeWx/ZQ8CrzT7ThPhZwff0/opNTsucfmq4ru6/2Yt7S0lrgQRqIIoQdxByVommsoqmmnhgCgPQ5QTk9xID3EhOQxIMhiQZDEgyeYkIPC5SMnhKEZE1QGt0e0CtNpo+asMf4h+0cODNnN3cVXajaVdfCHF/p6/wWOn2bZZxnwX6nTrluSz2OPBAynvOOtzjvc7byy3Kiu1Fl0szZe00QpjiCLFaTcCAEAIAQAgBACAEAIAQAgBACAEBWXxcFltYpPEHHY8dV45OGvsyW+nU209h/wabtPXavnRh729GTxU2WcOHuSaj+tooe4K1q2snwsj9V/BU27JfOuXqZK8NHbbZ/vbM8Ae0G42/qbUBWNeqps7Ml7e5X2aS6vtRfuVYct5zHuJCQxIMhiQZDEgyeFyEE+77ltVop0NnkcDk7CQ39Ro3xWmzUVV9qSX33G+vTW2dmLNXdPo0nfQ2mVsY91nXdyr6o8VX27WguFaz58Pv9Cwq2TN8bHjyNzcmi9ksdDFEC/wDeO6z+8+r2UVVfq7bu0+Hd0LWjSVU9lce/qXK5jpBACAEAIAQAgBACAEAIAQAgBACAEAIAQAgBAQrZdNmm+9gjed7o2k95FVthdZDsya+prnTXPtRT+hUT6C3c/X9nwn8Mkg8MVPBdEdo6hf8AX6I5pbP07/59yI/0c2A5dKOUv1C2Lal/h6Gt7Lo7n6njfRxYB+9POQfIKXtS/wAPQLZdHj6kuHQO7W6+gLvilkPhiotcto6h/wDX6I2LZ2nX/P6stbHclkh1xWaJp3iNte+lVzz1Fs+1Jv6nRCiuHZil9CwWk2ggBACAEAIAQAgBACAEAIAQAgBACAEAIAQAgBACAEAIAQAgBACAEAIAQAgBACAEAIAQAgBACAEB/9k=;" vertex="1" parent="1">
          <mxGeometry x="372.45" y="190.37" width="20" height="20" as="geometry" />
        </mxCell>
      </root>
    </mxGraphModel>
  </diagram>
</mxfile>
